<svg xmlns="http://www.w3.org/2000/svg" xmlns:xlink="http://www.w3.org/1999/xlink" xmlns:lucid="lucid" width="2187.67" height="1431"><g transform="translate(420.5 810.5)" lucid:page-tab-id="0_0"><path d="M-500-1000h2500v2000H-500z" fill="#fff"/><path d="M-400-500v-154a6 6 0 0 1 6-6h62.33v160zM-400-500h68.33v200H-400zM-400-300h68.33v440H-400zM-400 140h68.33v220H-400zM-331.67 600H-394a6 6 0 0 1-6-6V360h68.33z" stroke="#3a414a" fill="#fff"/><path d="M-331.67-660h2072.34a6 6 0 0 1 6 6v154H-331.67zM-331.67-500h2078.34v200H-331.67zM-331.67-300h2078.34v440H-331.67zM-331.67 140h2078.34v220H-331.67zM1746.67 360v234a6 6 0 0 1-6 6H-331.67V360z" stroke="#3a414a" fill="none"/><use xlink:href="#a" transform="matrix(-1.8369701987210297e-16,-1,1,-1.8369701987210297e-16,-399.9999999999999,-499.99999999999994) translate(56.60493827160494 38.94444444444444)"/><use xlink:href="#b" transform="matrix(-1.8369701987210297e-16,-1,1,-1.8369701987210297e-16,-399.9999999999999,-300) translate(51.94444444444445 38.94444444444444)"/><use xlink:href="#c" transform="matrix(-1.8369701987210297e-16,-1,1,-1.8369701987210297e-16,-399.9999999999999,140) translate(137.34567901234567 38.94444444444444)"/><use xlink:href="#d" transform="matrix(-1.8369701987210297e-16,-1,1,-1.8369701987210297e-16,-399.9999999999999,140) translate(242.28395061728395 38.94444444444444)"/><use xlink:href="#e" transform="matrix(-1.8369701987210297e-16,-1,1,-1.8369701987210297e-16,-399.9999999999999,360) translate(21.851851851851848 25.611111111111114)"/><use xlink:href="#f" transform="matrix(-1.8369701987210297e-16,-1,1,-1.8369701987210297e-16,-399.9999999999999,360) translate(111.85185185185185 25.611111111111114)"/><use xlink:href="#d" transform="matrix(-1.8369701987210297e-16,-1,1,-1.8369701987210297e-16,-399.9999999999999,360) translate(79.81481481481481 52.27777777777778)"/><use xlink:href="#g" transform="matrix(-1.8369701987210297e-16,-1,1,-1.8369701987210297e-16,-400,600.0000000000001) translate(44.53703703703704 38.94444444444444)"/><use xlink:href="#h" transform="matrix(-1.8369701987210297e-16,-1,1,-1.8369701987210297e-16,-400,600.0000000000001) translate(100.46296296296296 38.94444444444444)"/><path d="M380-784a6 6 0 0 1 6-6h568a6 6 0 0 1 6 6v118a6 6 0 0 1-6 6H386a6 6 0 0 1-6-6z" stroke="#000" stroke-opacity="0" fill="#fff" fill-opacity="0"/><use xlink:href="#i" transform="matrix(1,0,0,1,385,-785) translate(25.23148148148158 67.91666666666666)"/><use xlink:href="#j" transform="matrix(1,0,0,1,385,-785) translate(110.32407407407415 67.91666666666666)"/><use xlink:href="#k" transform="matrix(1,0,0,1,385,-785) translate(267.5462962962963 67.91666666666666)"/><use xlink:href="#l" transform="matrix(1,0,0,1,385,-785) translate(400.6944444444444 67.91666666666666)"/><path d="M-180-620c22.1 0 40 17.9 40 40s-17.9 40-40 40h-80c-22.1 0-40-17.9-40-40s17.9-40 40-40z" stroke="#3a414a" fill="#fff"/><use xlink:href="#m" transform="matrix(1,0,0,1,-288,-608) translate(1.4259259259259238 21.27777777777778)"/><use xlink:href="#n" transform="matrix(1,0,0,1,-288,-608) translate(54.388888888888886 21.27777777777778)"/><use xlink:href="#o" transform="matrix(1,0,0,1,-288,-608) translate(103.70987654320987 21.27777777777778)"/><use xlink:href="#p" transform="matrix(1,0,0,1,-288,-608) translate(26.73456790123457 47.94444444444444)"/><path d="M-100-634a6 6 0 0 1 6-6H54a6 6 0 0 1 6 6v108a6 6 0 0 1-6 6H-94a6 6 0 0 1-6-6z" stroke="#3a414a" fill="#fff"/><use xlink:href="#q" transform="matrix(1,0,0,1,-88,-628) translate(6.3950617283950635 26.77777777777778)"/><use xlink:href="#r" transform="matrix(1,0,0,1,-88,-628) translate(59.358024691358025 26.77777777777778)"/><use xlink:href="#s" transform="matrix(1,0,0,1,-88,-628) translate(26.76543209876543 53.44444444444445)"/><use xlink:href="#t" transform="matrix(1,0,0,1,-88,-628) translate(40.87037037037037 80.11111111111111)"/><path d="M390.15-478.8a7.64 7.64 0 0 1 9.44 0l100.55 78.93a4.7 4.7 0 0 1 0 7.4L399.6-313.53a7.64 7.64 0 0 1-9.45 0L289.6-392.46a4.7 4.7 0 0 1 0-7.4z" stroke="#3a414a" fill="#fff"/><use xlink:href="#u" transform="matrix(1,0,0,1,296.86683042610844,-470.5) translate(66.55438271604939 36.40277777777778)"/><use xlink:href="#v" transform="matrix(1,0,0,1,296.86683042610844,-470.5) translate(37.60376543209877 63.06944444444445)"/><use xlink:href="#w" transform="matrix(1,0,0,1,296.86683042610844,-470.5) translate(59.76425925925926 63.06944444444445)"/><use xlink:href="#x" transform="matrix(1,0,0,1,296.86683042610844,-470.5) translate(27.233395061728398 89.73611111111111)"/><use xlink:href="#y" transform="matrix(1,0,0,1,296.86683042610844,-470.5) translate(60.443271604938275 89.73611111111111)"/><use xlink:href="#z" transform="matrix(1,0,0,1,296.86683042610844,-470.5) translate(86.30746913580246 89.73611111111111)"/><use xlink:href="#A" transform="matrix(1,0,0,1,296.86683042610844,-470.5) translate(73.96179012345678 116.4027777777778)"/><path d="M640.5-455.5a6 6 0 0 1 6-6h148a6 6 0 0 1 6 6v118.67a6 6 0 0 1-6 6h-148a6 6 0 0 1-6-6z" stroke="#3a414a" fill="#fff"/><use xlink:href="#B" transform="matrix(1,0,0,1,652.5003118598443,-449.49999999999994) translate(5.65432098765433 21.12152777777778)"/><use xlink:href="#C" transform="matrix(1,0,0,1,652.5003118598443,-449.49999999999994) translate(48.86419753086421 21.12152777777778)"/><use xlink:href="#D" transform="matrix(1,0,0,1,652.5003118598443,-449.49999999999994) translate(109.35802469135803 21.12152777777778)"/><use xlink:href="#E" transform="matrix(1,0,0,1,652.5003118598443,-449.49999999999994) translate(36.54938271604938 47.78819444444444)"/><use xlink:href="#o" transform="matrix(1,0,0,1,652.5003118598443,-449.49999999999994) translate(68.58641975308642 47.78819444444444)"/><use xlink:href="#F" transform="matrix(1,0,0,1,652.5003118598443,-449.49999999999994) translate(19.327160493827165 74.45486111111111)"/><use xlink:href="#G" transform="matrix(1,0,0,1,652.5003118598443,-449.49999999999994) translate(40.28395061728395 101.12152777777777)"/><path d="M611.96-162.37a10.6 10.6 0 0 1 10.44 0l126.75 71.75a3.4 3.4 0 0 1 0 5.9L622.4-12.95a10.6 10.6 0 0 1-10.44 0L485.22-84.7a3.4 3.4 0 0 1 0-5.92z" stroke="#3a414a" fill="#fff"/><use xlink:href="#H" transform="matrix(1,0,0,1,492,-153.32326002515083) translate(80.65314814814815 30.368292746405587)"/><use xlink:href="#I" transform="matrix(1,0,0,1,492,-153.32326002515083) translate(38.67783950617284 57.03495941307226)"/><use xlink:href="#J" transform="matrix(1,0,0,1,492,-153.32326002515083) translate(88.06055555555555 57.03495941307226)"/><use xlink:href="#K" transform="matrix(1,0,0,1,492,-153.32326002515083) translate(112.7519135802469 57.03495941307226)"/><use xlink:href="#L" transform="matrix(1,0,0,1,492,-153.32326002515083) translate(42.35067901234567 83.70162607973893)"/><use xlink:href="#M" transform="matrix(1,0,0,1,492,-153.32326002515083) translate(127.41240740740741 83.70162607973893)"/><use xlink:href="#N" transform="matrix(1,0,0,1,492,-153.32326002515083) translate(164.44944444444445 83.70162607973893)"/><use xlink:href="#v" transform="matrix(1,0,0,1,492,-153.32326002515083) translate(89.2333950617284 110.36829274640559)"/><use xlink:href="#O" transform="matrix(1,0,0,1,492,-153.32326002515083) translate(111.3938888888889 110.36829274640559)"/><path d="M920-32.67a6 6 0 0 1 6-6h148a6 6 0 0 1 6 6v145.34a6 6 0 0 1-6 6H926a6 6 0 0 1-6-6z" stroke="#3a414a" fill="#fff"/><use xlink:href="#P" transform="matrix(1,0,0,1,932,-26.66666666666667) translate(21.73456790123457 21.96527777777778)"/><use xlink:href="#Q" transform="matrix(1,0,0,1,932,-26.66666666666667) translate(5.685185185185183 48.63194444444444)"/><use xlink:href="#R" transform="matrix(1,0,0,1,932,-26.66666666666667) translate(111.7962962962963 48.63194444444444)"/><use xlink:href="#S" transform="matrix(1,0,0,1,932,-26.66666666666667) translate(4.450617283950621 75.29861111111111)"/><use xlink:href="#T" transform="matrix(1,0,0,1,932,-26.66666666666667) translate(88.40123456790123 75.29861111111111)"/><use xlink:href="#U" transform="matrix(1,0,0,1,932,-26.66666666666667) translate(30.376543209876544 101.96527777777777)"/><use xlink:href="#V" transform="matrix(1,0,0,1,932,-26.66666666666667) translate(48.89506172839506 101.96527777777777)"/><use xlink:href="#W" transform="matrix(1,0,0,1,932,-26.66666666666667) translate(16.858024691358025 128.63194444444446)"/><path d="M920-272.67a6 6 0 0 1 6-6h148a6 6 0 0 1 6 6v145.34a6 6 0 0 1-6 6H926a6 6 0 0 1-6-6z" stroke="#3a414a" fill="#fff"/><use xlink:href="#P" transform="matrix(1,0,0,1,932,-266.6666666666666) translate(21.73456790123457 21.96527777777778)"/><use xlink:href="#Q" transform="matrix(1,0,0,1,932,-266.6666666666666) translate(5.685185185185183 48.63194444444444)"/><use xlink:href="#R" transform="matrix(1,0,0,1,932,-266.6666666666666) translate(111.7962962962963 48.63194444444444)"/><use xlink:href="#S" transform="matrix(1,0,0,1,932,-266.6666666666666) translate(4.450617283950621 75.29861111111111)"/><use xlink:href="#T" transform="matrix(1,0,0,1,932,-266.6666666666666) translate(88.40123456790123 75.29861111111111)"/><use xlink:href="#J" transform="matrix(1,0,0,1,932,-266.6666666666666) translate(5.716049382716051 101.96527777777777)"/><use xlink:href="#X" transform="matrix(1,0,0,1,932,-266.6666666666666) translate(30.40740740740741 101.96527777777777)"/><use xlink:href="#Y" transform="matrix(1,0,0,1,932,-266.6666666666666) translate(95.77777777777777 101.96527777777777)"/><use xlink:href="#Z" transform="matrix(1,0,0,1,932,-266.6666666666666) translate(46.39506172839506 128.63194444444446)"/><path d="M1200.5-470.17a6 6 0 0 1 6-6h148a6 6 0 0 1 6 6v108a6 6 0 0 1-6 6h-148a6 6 0 0 1-6-6z" stroke="#3a414a" fill="#fff"/><use xlink:href="#aa" transform="matrix(1,0,0,1,1212.5003118598443,-464.16666666666663) translate(22.96913580246914 38.77777777777778)"/><use xlink:href="#o" transform="matrix(1,0,0,1,1212.5003118598443,-464.16666666666663) translate(82.16666666666666 38.77777777777778)"/><use xlink:href="#ab" transform="matrix(1,0,0,1,1212.5003118598443,-464.16666666666663) translate(21.70370370370371 65.44444444444446)"/><use xlink:href="#ac" transform="matrix(1,0,0,1,1212.5003118598443,-464.16666666666663) translate(71.08641975308643 65.44444444444446)"/><path d="M1621.58-625c22.1 0 40 17.9 40 40s-17.9 40-40 40H1520c-22.1 0-40-17.9-40-40s17.9-40 40-40z" stroke="#3a414a" fill="#fff"/><use xlink:href="#ad" transform="matrix(1,0,0,1,1492,-613) translate(12.487654320987659 31.77777777777778)"/><use xlink:href="#ae" transform="matrix(1,0,0,1,1492,-613) translate(91.31481481481481 31.77777777777778)"/><path d="M-139-580h22.12" stroke="#3a414a" fill="none"/><path d="M-139-579.52h-.53l.03-.47-.02-.48h.53z" stroke="#3a414a" stroke-width=".05" fill="#3a414a"/><path d="M-102.12-580l-14.26 4.63v-9.26z" stroke="#3a414a" fill="#3a414a"/><path d="M61-580h63.3a6 6 0 0 1 6 6v100.95" stroke="#3a414a" fill="none"/><path d="M61-579.52h-.5v-.96h.5z" stroke="#3a414a" stroke-width=".05" fill="#3a414a"/><path d="M130.3-458.3l-4.62-14.25h9.27z" stroke="#3a414a" fill="#3a414a"/><path d="M502.95-396.17H623.6" stroke="#3a414a" fill="none"/><path d="M502.96-395.7h-.55l.05-.47-.04-.47h.56z" stroke="#3a414a" stroke-width=".05" fill="#3a414a"/><path d="M638.38-396.17l-14.26 4.64v-9.27z" stroke="#3a414a" fill="#3a414a"/><use xlink:href="#af" transform="matrix(1,0,0,1,513.1020483635268,-426.13525484587996) translate(0 14.222222222222223)"/><use xlink:href="#ag" transform="matrix(1,0,0,1,513.1020483635268,-426.13525484587996) translate(90.61728395061729 14.222222222222223)"/><path d="M1081 40h53.25a6 6 0 0 0 6-6v-444.17a6 6 0 0 1 6-6h37.37" stroke="#3a414a" fill="none"/><path d="M1081 40.48h-.5v-.95h.5z" stroke="#3a414a" stroke-width=".05" fill="#3a414a"/><path d="M1198.38-416.17l-14.26 4.64v-9.27z" stroke="#3a414a" fill="#3a414a"/><path d="M1081-200h53.25a6 6 0 0 0 6-6v-204.17a6 6 0 0 1 6-6h37.37" stroke="#3a414a" fill="none"/><path d="M1081-199.53h-.5v-.94h.5z" stroke="#3a414a" stroke-width=".05" fill="#3a414a"/><path d="M1198.38-416.17l-14.26 4.64v-9.27z" stroke="#3a414a" fill="#3a414a"/><path d="M1361.5-416.17h52.75a6 6 0 0 0 6-6V-579a6 6 0 0 1 6-6h36.87" stroke="#3a414a" fill="none"/><path d="M1361.5-415.7h-.5v-.94h.5z" stroke="#3a414a" stroke-width=".05" fill="#3a414a"/><path d="M1477.88-585l-14.26 4.63v-9.26z" stroke="#3a414a" fill="#3a414a"/><path d="M44.87-450.17a6 6 0 0 1 6-6h148a6 6 0 0 1 6 6v108a6 6 0 0 1-6 6h-148a6 6 0 0 1-6-6z" stroke="#3a414a" fill="#fff"/><use xlink:href="#ah" transform="matrix(1,0,0,1,56.866830426108436,-444.16666666666663) translate(12.475308641975317 38.77777777777778)"/><use xlink:href="#ai" transform="matrix(1,0,0,1,56.866830426108436,-444.16666666666663) translate(87.72222222222221 38.77777777777778)"/><use xlink:href="#aj" transform="matrix(1,0,0,1,56.866830426108436,-444.16666666666663) translate(11.91975308641976 65.44444444444446)"/><use xlink:href="#ak" transform="matrix(1,0,0,1,56.866830426108436,-444.16666666666663) translate(62.41358024691359 65.44444444444446)"/><path d="M205.87-396.17h65.03" stroke="#3a414a" fill="none"/><path d="M205.88-395.7h-.5v-.94h.5z" stroke="#3a414a" stroke-width=".05" fill="#3a414a"/><path d="M285.67-396.17l-14.27 4.64v-9.27z" stroke="#3a414a" fill="#3a414a"/><path d="M720.5-329.83v107.9a6 6 0 0 1-6 6h-91.32a6 6 0 0 0-6 6v29.3" stroke="#3a414a" fill="none"/><path d="M720.98-329.82H720v-.5h.96z" stroke="#3a414a" stroke-width=".05" fill="#3a414a"/><path d="M617.18-165.86l-4.63-14.27h9.27z" stroke="#3a414a" fill="#3a414a"/><path d="M836.4-93.62l-.07 1.05-.26 1.06-.42 1-.57.94-.7.83-.84.7-.94.6-1 .4-1.07.26-1.06.08h-77.1v-1.94h77.03l.82-.06.77-.2.72-.3.67-.4.6-.5.5-.6.4-.68.3-.73.2-.78.06-.82v-39.46h1.95zm64.6-105.4h-59.53l-.82.06-.77.18-.72.3-.68.42-.6.5-.5.6-.42.68-.3.73-.18.76-.07.84v39.46h-1.94v-39.54l.08-1.05.26-1.06.42-1 .57-.94.7-.83.83-.72.94-.57 1-.42 1.07-.25 1.06-.07H901z" stroke="#008a0e" stroke-width=".05" fill="#008a0e"/><path d="M752.4-86.7h-1.17l.05-.14.1-.82-.1-.82-.05-.16h1.17z" fill="#008a0e"/><path stroke="#008a0e" stroke-width=".05" fill="#008a0e"/><path d="M916.26-200L902-195.37v-9.26z" fill="#008a0e"/><path d="M919.42-200l-18.4 5.98v-11.96zm-16.45 3.3l10.14-3.3-10.13-3.3z" stroke="#008a0e" stroke-width=".05" fill="#008a0e"/><g><use xlink:href="#al" transform="matrix(1,0,0,1,820.1269885903316,-154.4974816729543) translate(0 14.222222222222223)"/></g><path d="M901 39.02v1.95H790.88v-1.95zm-133.7-9.7h-.02v9.48l-.6-.7-.57-.93-.4-1-.27-1.08-.08-1.06v-120.7h1.95z" stroke="#e81313" stroke-width=".05" fill="#e81313"/><path d="M767.3-86.64h-1.95v-1.02h1.95z" stroke="#e81313" stroke-width=".05" fill="#e81313"/><path d="M916.26 40L902 44.63v-9.27z" fill="#e81313"/><path d="M919.42 40l-18.4 5.98V34.02zm-16.45 3.3L913.1 40l-10.13-3.3z" stroke="#e81313" stroke-width=".05" fill="#e81313"/><g><use xlink:href="#am" transform="matrix(1,0,0,1,767.2792970012287,29.333333333333332) translate(0 14.222222222222223)"/></g><path d="M395.34 24.1l-.07.3-.3.3-.13.03v218.9h-.95V24.48l.06-.3.3-.3.13-.04V-14.8h.94zm0-60.22h-.95v-274.8h.94z" stroke="#3a414a" stroke-width=".05" fill="#3a414a"/><path d="M394.87-311.4l.47-.04v.55h-.95v-.54z" fill="#3a414a"/><path stroke="#3a414a" stroke-width=".05" fill="#3a414a"/><path d="M394.37 258.38l-4.64-14.26H399z" fill="#3a414a"/><path d="M394.37 259.92l-5.3-16.28h10.6zm-4-15.33l4 12.25 3.98-12.26z" stroke="#3a414a" stroke-width=".05" fill="#3a414a"/><g><use xlink:href="#an" transform="matrix(1,0,0,1,333.0149785742566,-36.11932351990491) translate(0 14.222222222222223)"/><use xlink:href="#ao" transform="matrix(1,0,0,1,333.0149785742566,-36.11932351990491) translate(78.71604938271605 14.222222222222223)"/></g><path d="M314.37 166a6 6 0 0 1 6-6H514a6 6 0 0 1 6 6v172a6 6 0 0 1-6 6H320.37a6 6 0 0 1-6-6z" stroke="#3a414a" fill="#fff"/><g><use xlink:href="#ap" transform="matrix(1,0,0,1,326.3665185662642,171.99999999999994) translate(26.27777777777777 42.77777777777778)"/><use xlink:href="#aq" transform="matrix(1,0,0,1,326.3665185662642,171.99999999999994) translate(71.89506172839506 42.77777777777778)"/><use xlink:href="#ar" transform="matrix(1,0,0,1,326.3665185662642,171.99999999999994) translate(9.024691358024683 69.44444444444446)"/><use xlink:href="#as" transform="matrix(1,0,0,1,326.3665185662642,171.99999999999994) translate(101.49382716049382 69.44444444444446)"/><use xlink:href="#J" transform="matrix(1,0,0,1,326.3665185662642,171.99999999999994) translate(2.882716049382722 96.11111111111111)"/><use xlink:href="#at" transform="matrix(1,0,0,1,326.3665185662642,171.99999999999994) translate(27.57407407407408 96.11111111111111)"/><use xlink:href="#au" transform="matrix(1,0,0,1,326.3665185662642,171.99999999999994) translate(100.29012345679011 96.11111111111111)"/><use xlink:href="#G" transform="matrix(1,0,0,1,326.3665185662642,171.99999999999994) translate(63.28395061728395 122.7777777777778)"/></g><path d="M521 252h90.18a6 6 0 0 0 6-6V5.3" stroke="#3a414a" fill="none"/><path d="M521 252.47h-.5v-.94h.5z" stroke="#3a414a" stroke-width=".05" fill="#3a414a"/><path d="M617.18-9.46l4.64 14.26h-9.27z" stroke="#3a414a" fill="#3a414a"/><path d="M-145.33 414.67c36.08 0 65.33 29.25 65.33 65.33s-29.25 65.33-65.33 65.33h-29.34c-36.08 0-65.33-29.25-65.33-65.33s29.25-65.33 65.33-65.33z" stroke="#3a414a" fill="#fff"/><g><use xlink:href="#av" transform="matrix(1,0,0,1,-228,426.66666666666663) translate(17.079074074074065 21.12152777777778)"/><use xlink:href="#aw" transform="matrix(1,0,0,1,-228,426.66666666666663) translate(56.09141975308641 21.12152777777778)"/><use xlink:href="#ax" transform="matrix(1,0,0,1,-228,426.66666666666663) translate(24.790123456790127 47.78819444444444)"/><use xlink:href="#ay" transform="matrix(1,0,0,1,-228,426.66666666666663) translate(74.17283950617283 47.78819444444444)"/><use xlink:href="#az" transform="matrix(1,0,0,1,-228,426.66666666666663) translate(31.641975308641975 74.45486111111111)"/><use xlink:href="#aA" transform="matrix(1,0,0,1,-228,426.66666666666663) translate(87.1358024691358 74.45486111111111)"/><use xlink:href="#aB" transform="matrix(1,0,0,1,-228,426.66666666666663) translate(22.325987654320986 101.12152777777777)"/></g><path d="M124.87-335.17v185.34a6 6 0 0 1-6 6H-154a6 6 0 0 0-6 6v535.6" stroke="#3a414a" fill="none"/><path d="M125.34-335.15h-.95v-.52h.94z" stroke="#3a414a" stroke-width=".05" fill="#3a414a"/><path d="M-160 412.55l-4.63-14.27h9.26z" stroke="#3a414a" fill="#3a414a"/><path d="M-8.67 403.33a6 6 0 0 1 6-6h193.63a6 6 0 0 1 6 6v172a6 6 0 0 1-6 6H-2.67a6 6 0 0 1-6-6z" stroke="#3a414a" fill="#fff"/><g><use xlink:href="#aC" transform="matrix(1,0,0,1,3.3273945996916154,409.3333333333332) translate(9.271604938271594 82.77777777777777)"/><use xlink:href="#aD" transform="matrix(1,0,0,1,3.3273945996916154,409.3333333333332) translate(65.07407407407406 82.77777777777777)"/><use xlink:href="#aE" transform="matrix(1,0,0,1,3.3273945996916154,409.3333333333332) translate(101.24691358024691 82.77777777777777)"/></g><path d="M300 403.33a6 6 0 0 1 6-6h193.63a6 6 0 0 1 6 6v172a6 6 0 0 1-6 6H306a6 6 0 0 1-6-6z" stroke="#3a414a" fill="#fff"/><g><use xlink:href="#aF" transform="matrix(1,0,0,1,312,409.3333333333332) translate(12.04938271604938 72.77777777777777)"/><use xlink:href="#aG" transform="matrix(1,0,0,1,312,409.3333333333332) translate(58.901234567901234 72.77777777777777)"/><use xlink:href="#aH" transform="matrix(1,0,0,1,312,409.3333333333332) translate(102.11111111111111 72.77777777777777)"/><use xlink:href="#aD" transform="matrix(1,0,0,1,312,409.3333333333332) translate(37.172839506172835 99.44444444444446)"/><use xlink:href="#aE" transform="matrix(1,0,0,1,312,409.3333333333332) translate(73.34567901234567 99.44444444444446)"/></g><path d="M197.96 489.33h85.16" stroke="#3a414a" fill="none"/><path d="M197.97 489.8h-.5v-.94h.5z" stroke="#3a414a" stroke-width=".05" fill="#3a414a"/><path d="M297.88 489.33l-14.26 4.64v-9.27z" stroke="#3a414a" fill="#3a414a"/><path d="M402.82 396.33v-35.45" stroke="#3a414a" fill="none"/><path d="M403.3 396.83h-.96v-.5h.95z" stroke="#3a414a" stroke-width=".05" fill="#3a414a"/><path d="M402.82 346.12l4.63 14.26h-9.27z" stroke="#3a414a" fill="#3a414a"/><path d="M1183.62-415.7h-37.1l-.88.08-.85.2-.8.33-.75.47-.65.56-.57.66-.45.73-.33.8-.2.84-.08.88v893.5l-.07 1-.24.98-.4.94-.52.87-.66.77-.77.67-.86.53-.94.4-1 .23-.98.08h-627.9v-.94h627.86l.88-.07.85-.2.8-.35.75-.45.66-.56.57-.66.45-.74.33-.8.2-.84.08-.88v-893.5l.07-1 .24-1 .4-.93.52-.87.66-.78.77-.66.86-.54.94-.4 1-.22.98-.08h37.14z" stroke="#3a414a" stroke-width=".05" fill="#3a414a"/><path d="M506.65 489.8h-.52v-.94h.52z" fill="#3a414a"/><path stroke="#3a414a" stroke-width=".05" fill="#3a414a"/><path d="M1198.38-416.17l-14.26 4.64v-9.27z" fill="#3a414a"/><path d="M1199.92-416.17l-16.28 5.3v-10.6zm-15.33 4l12.25-4-12.26-3.98z" stroke="#3a414a" stroke-width=".05" fill="#3a414a"/><path d="M1200 403.33a6 6 0 0 1 6-6h193.63a6 6 0 0 1 6 6v172a6 6 0 0 1-6 6H1206a6 6 0 0 1-6-6z" stroke="#3a414a" fill="#fff"/><g><use xlink:href="#aI" transform="matrix(1,0,0,1,1212,409.3333333333332) translate(49.67283950617284 57.77777777777778)"/><use xlink:href="#aJ" transform="matrix(1,0,0,1,1212,409.3333333333332) translate(22.574074074074062 84.44444444444446)"/><use xlink:href="#aK" transform="matrix(1,0,0,1,1212,409.3333333333332) translate(54.02469135802469 111.11111111111111)"/></g><path d="M1302.82 396.33v-626.5a6 6 0 0 1 6-6h105.68a6 6 0 0 0 6-6V-579a6 6 0 0 1 6-6h36.62" stroke="#3a414a" fill="none"/><path d="M1303.3 396.83h-.96v-.5h.95z" stroke="#3a414a" stroke-width=".05" fill="#3a414a"/><path d="M1477.88-585l-14.26 4.63v-9.26z" stroke="#3a414a" fill="#3a414a"/><path d="M-79 480h53.44" stroke="#3a414a" fill="none"/><path d="M-79 480.48h-.52l.02-.48v-.48h.5z" stroke="#3a414a" stroke-width=".05" fill="#3a414a"/><path d="M-10.8 480l-14.26 4.63v-9.26z" stroke="#3a414a" fill="#3a414a"/><defs><path fill="#3a414a" d="M232-93c-1 65-40 97-104 97C67 4 28-28 28-90v-158h33c8 89-33 224 67 224 102 0 64-133 71-224h33v155" id="aL"/><path fill="#3a414a" d="M135-143c-3-34-86-38-87 0 15 53 115 12 119 90S17 21 10-45l28-5c4 36 97 45 98 0-10-56-113-15-118-90-4-57 82-63 122-42 12 7 21 19 24 35" id="aM"/><path fill="#3a414a" d="M100-194c63 0 86 42 84 106H49c0 40 14 67 53 68 26 1 43-12 49-29l28 8c-11 28-37 45-77 45C44 4 14-33 15-96c1-61 26-98 85-98zm52 81c6-60-76-77-97-28-3 7-6 17-6 28h103" id="aN"/><path fill="#3a414a" d="M114-163C36-179 61-72 57 0H25l-1-190h30c1 12-1 29 2 39 6-27 23-49 58-41v29" id="aO"/><g id="a"><use transform="matrix(0.06172839506172839,0,0,0.06172839506172839,0,0)" xlink:href="#aL"/><use transform="matrix(0.06172839506172839,0,0,0.06172839506172839,15.987654320987653,0)" xlink:href="#aM"/><use transform="matrix(0.06172839506172839,0,0,0.06172839506172839,27.098765432098766,0)" xlink:href="#aN"/><use transform="matrix(0.06172839506172839,0,0,0.06172839506172839,39.44444444444444,0)" xlink:href="#aO"/></g><path fill="#3a414a" d="M30-248c87 1 191-15 191 75 0 78-77 80-158 76V0H30v-248zm33 125c57 0 124 11 124-50 0-59-68-47-124-48v98" id="aP"/><path fill="#3a414a" d="M100-194c62-1 85 37 85 99 1 63-27 99-86 99S16-35 15-95c0-66 28-99 85-99zM99-20c44 1 53-31 53-75 0-43-8-75-51-75s-53 32-53 75 10 74 51 75" id="aQ"/><path fill="#3a414a" d="M177-190C167-65 218 103 67 71c-23-6-38-20-44-43l32-5c15 47 100 32 89-28v-30C133-14 115 1 83 1 29 1 15-40 15-95c0-56 16-97 71-98 29-1 48 16 59 35 1-10 0-23 2-32h30zM94-22c36 0 50-32 50-73 0-42-14-75-50-75-39 0-46 34-46 75s6 73 46 73" id="aR"/><path fill="#3a414a" d="M141-36C126-15 110 5 73 4 37 3 15-17 15-53c-1-64 63-63 125-63 3-35-9-54-41-54-24 1-41 7-42 31l-33-3c5-37 33-52 76-52 45 0 72 20 72 64v82c-1 20 7 32 28 27v20c-31 9-61-2-59-35zM48-53c0 20 12 33 32 33 41-3 63-29 60-74-43 2-92-5-92 41" id="aS"/><path fill="#3a414a" d="M210-169c-67 3-38 105-44 169h-31v-121c0-29-5-50-35-48C34-165 62-65 56 0H25l-1-190h30c1 10-1 24 2 32 10-44 99-50 107 0 11-21 27-35 58-36 85-2 47 119 55 194h-31v-121c0-29-5-49-35-48" id="aT"/><g id="b"><use transform="matrix(0.06172839506172839,0,0,0.06172839506172839,0,0)" xlink:href="#aP"/><use transform="matrix(0.06172839506172839,0,0,0.06172839506172839,14.814814814814813,0)" xlink:href="#aO"/><use transform="matrix(0.06172839506172839,0,0,0.06172839506172839,22.160493827160494,0)" xlink:href="#aQ"/><use transform="matrix(0.06172839506172839,0,0,0.06172839506172839,34.50617283950617,0)" xlink:href="#aR"/><use transform="matrix(0.06172839506172839,0,0,0.06172839506172839,46.85185185185185,0)" xlink:href="#aO"/><use transform="matrix(0.06172839506172839,0,0,0.06172839506172839,54.197530864197525,0)" xlink:href="#aS"/><use transform="matrix(0.06172839506172839,0,0,0.06172839506172839,66.5432098765432,0)" xlink:href="#aT"/><use transform="matrix(0.06172839506172839,0,0,0.06172839506172839,84.99999999999999,0)" xlink:href="#aM"/></g><path fill="#3a414a" d="M30 0v-248h33v221h125V0H30" id="aU"/><path fill="#3a414a" d="M117-194c89-4 53 116 60 194h-32v-121c0-31-8-49-39-48C34-167 62-67 57 0H25l-1-190h30c1 10-1 24 2 32 11-22 29-35 61-36" id="aV"/><path fill="#3a414a" d="M84 4C-5 8 30-112 23-190h32v120c0 31 7 50 39 49 72-2 45-101 50-169h31l1 190h-30c-1-10 1-25-2-33-11 22-28 36-60 37" id="aW"/><g id="c"><use transform="matrix(0.06172839506172839,0,0,0.06172839506172839,0,0)" xlink:href="#aU"/><use transform="matrix(0.06172839506172839,0,0,0.06172839506172839,12.345679012345679,0)" xlink:href="#aS"/><use transform="matrix(0.06172839506172839,0,0,0.06172839506172839,24.691358024691358,0)" xlink:href="#aV"/><use transform="matrix(0.06172839506172839,0,0,0.06172839506172839,37.03703703703704,0)" xlink:href="#aR"/><use transform="matrix(0.06172839506172839,0,0,0.06172839506172839,49.382716049382715,0)" xlink:href="#aW"/><use transform="matrix(0.06172839506172839,0,0,0.06172839506172839,61.72839506172839,0)" xlink:href="#aS"/><use transform="matrix(0.06172839506172839,0,0,0.06172839506172839,74.07407407407408,0)" xlink:href="#aR"/><use transform="matrix(0.06172839506172839,0,0,0.06172839506172839,86.41975308641976,0)" xlink:href="#aN"/></g><path fill="#3a414a" d="M240 0l2-218c-23 76-54 145-80 218h-23L58-218 59 0H30v-248h44l77 211c21-75 51-140 76-211h43V0h-30" id="aX"/><path fill="#3a414a" d="M85-194c31 0 48 13 60 33l-1-100h32l1 261h-30c-2-10 0-23-3-31C134-8 116 4 85 4 32 4 16-35 15-94c0-66 23-100 70-100zm9 24c-40 0-46 34-46 75 0 40 6 74 45 74 42 0 51-32 51-76 0-42-9-74-50-73" id="aY"/><path fill="#3a414a" d="M24 0v-261h32V0H24" id="aZ"/><g id="d"><use transform="matrix(0.06172839506172839,0,0,0.06172839506172839,0,0)" xlink:href="#aX"/><use transform="matrix(0.06172839506172839,0,0,0.06172839506172839,18.456790123456788,0)" xlink:href="#aQ"/><use transform="matrix(0.06172839506172839,0,0,0.06172839506172839,30.80246913580247,0)" xlink:href="#aY"/><use transform="matrix(0.06172839506172839,0,0,0.06172839506172839,43.148148148148145,0)" xlink:href="#aN"/><use transform="matrix(0.06172839506172839,0,0,0.06172839506172839,55.49382716049382,0)" xlink:href="#aZ"/></g><path fill="#3a414a" d="M96-169c-40 0-48 33-48 73s9 75 48 75c24 0 41-14 43-38l32 2c-6 37-31 61-74 61-59 0-76-41-82-99-10-93 101-131 147-64 4 7 5 14 7 22l-32 3c-4-21-16-35-41-35" id="ba"/><path fill="#3a414a" d="M106-169C34-169 62-67 57 0H25v-261h32l-1 103c12-21 28-36 61-36 89 0 53 116 60 194h-32v-121c2-32-8-49-39-48" id="bb"/><path fill="#3a414a" d="M24-231v-30h32v30H24zM24 0v-190h32V0H24" id="bc"/><g id="e"><use transform="matrix(0.06172839506172839,0,0,0.06172839506172839,0,0)" xlink:href="#aX"/><use transform="matrix(0.06172839506172839,0,0,0.06172839506172839,18.456790123456788,0)" xlink:href="#aS"/><use transform="matrix(0.06172839506172839,0,0,0.06172839506172839,30.80246913580247,0)" xlink:href="#ba"/><use transform="matrix(0.06172839506172839,0,0,0.06172839506172839,41.91358024691358,0)" xlink:href="#bb"/><use transform="matrix(0.06172839506172839,0,0,0.06172839506172839,54.25925925925926,0)" xlink:href="#bc"/><use transform="matrix(0.06172839506172839,0,0,0.06172839506172839,59.135802469135804,0)" xlink:href="#aV"/><use transform="matrix(0.06172839506172839,0,0,0.06172839506172839,71.48148148148148,0)" xlink:href="#aN"/></g><g id="f"><use transform="matrix(0.06172839506172839,0,0,0.06172839506172839,0,0)" xlink:href="#aU"/><use transform="matrix(0.06172839506172839,0,0,0.06172839506172839,12.345679012345679,0)" xlink:href="#aN"/><use transform="matrix(0.06172839506172839,0,0,0.06172839506172839,24.691358024691358,0)" xlink:href="#aS"/><use transform="matrix(0.06172839506172839,0,0,0.06172839506172839,37.03703703703704,0)" xlink:href="#aO"/><use transform="matrix(0.06172839506172839,0,0,0.06172839506172839,44.382716049382715,0)" xlink:href="#aV"/><use transform="matrix(0.06172839506172839,0,0,0.06172839506172839,56.72839506172839,0)" xlink:href="#bc"/><use transform="matrix(0.06172839506172839,0,0,0.06172839506172839,61.60493827160494,0)" xlink:href="#aV"/><use transform="matrix(0.06172839506172839,0,0,0.06172839506172839,73.95061728395062,0)" xlink:href="#aR"/></g><path fill="#3a414a" d="M205 0l-28-72H64L36 0H1l101-248h38L239 0h-34zm-38-99l-47-123c-12 45-31 82-46 123h93" id="bd"/><path fill="#3a414a" d="M266 0h-40l-56-210L115 0H75L2-248h35L96-30l15-64 43-154h32l59 218 59-218h35" id="be"/><path fill="#3a414a" d="M185-189c-5-48-123-54-124 2 14 75 158 14 163 119 3 78-121 87-175 55-17-10-28-26-33-46l33-7c5 56 141 63 141-1 0-78-155-14-162-118-5-82 145-84 179-34 5 7 8 16 11 25" id="bf"/><g id="g"><use transform="matrix(0.06172839506172839,0,0,0.06172839506172839,0,0)" xlink:href="#bd"/><use transform="matrix(0.06172839506172839,0,0,0.06172839506172839,14.012345679012345,0)" xlink:href="#be"/><use transform="matrix(0.06172839506172839,0,0,0.06172839506172839,34.938271604938265,0)" xlink:href="#bf"/></g><path fill="#3a414a" d="M30-248c118-7 216 8 213 122C240-48 200 0 122 0H30v-248zM63-27c89 8 146-16 146-99s-60-101-146-95v194" id="bg"/><path fill="#3a414a" d="M59-47c-2 24 18 29 38 22v24C64 9 27 4 27-40v-127H5v-23h24l9-43h21v43h35v23H59v120" id="bh"/><path fill="#3a414a" d="M115-194c53 0 69 39 70 98 0 66-23 100-70 100C84 3 66-7 56-30L54 0H23l1-261h32v101c10-23 28-34 59-34zm-8 174c40 0 45-34 45-75 0-40-5-75-45-74-42 0-51 32-51 76 0 43 10 73 51 73" id="bi"/><g id="h"><use transform="matrix(0.06172839506172839,0,0,0.06172839506172839,0,0)" xlink:href="#bg"/><use transform="matrix(0.06172839506172839,0,0,0.06172839506172839,15.987654320987653,0)" xlink:href="#aS"/><use transform="matrix(0.06172839506172839,0,0,0.06172839506172839,28.333333333333332,0)" xlink:href="#bh"/><use transform="matrix(0.06172839506172839,0,0,0.06172839506172839,34.50617283950617,0)" xlink:href="#aS"/><use transform="matrix(0.06172839506172839,0,0,0.06172839506172839,46.85185185185185,0)" xlink:href="#bi"/><use transform="matrix(0.06172839506172839,0,0,0.06172839506172839,59.197530864197525,0)" xlink:href="#aS"/><use transform="matrix(0.06172839506172839,0,0,0.06172839506172839,71.5432098765432,0)" xlink:href="#aM"/><use transform="matrix(0.06172839506172839,0,0,0.06172839506172839,82.65432098765432,0)" xlink:href="#aN"/></g><path fill="#3a414a" d="M63-220v92h138v28H63V0H30v-248h175v28H63" id="bj"/><g id="i"><use transform="matrix(0.09259259259259256,0,0,0.09259259259259256,0,0)" xlink:href="#bj"/><use transform="matrix(0.09259259259259256,0,0,0.09259259259259256,20.27777777777777,0)" xlink:href="#aQ"/><use transform="matrix(0.09259259259259256,0,0,0.09259259259259256,38.79629629629628,0)" xlink:href="#aQ"/><use transform="matrix(0.09259259259259256,0,0,0.09259259259259256,57.314814814814795,0)" xlink:href="#aY"/></g><path fill="#3a414a" d="M33 0v-248h34V0H33" id="bk"/><g id="j"><use transform="matrix(0.09259259259259256,0,0,0.09259259259259256,0,0)" xlink:href="#bk"/><use transform="matrix(0.09259259259259256,0,0,0.09259259259259256,9.259259259259256,0)" xlink:href="#aV"/><use transform="matrix(0.09259259259259256,0,0,0.09259259259259256,27.777777777777768,0)" xlink:href="#aR"/><use transform="matrix(0.09259259259259256,0,0,0.09259259259259256,46.296296296296276,0)" xlink:href="#aO"/><use transform="matrix(0.09259259259259256,0,0,0.09259259259259256,57.314814814814795,0)" xlink:href="#aN"/><use transform="matrix(0.09259259259259256,0,0,0.09259259259259256,75.83333333333331,0)" xlink:href="#aY"/><use transform="matrix(0.09259259259259256,0,0,0.09259259259259256,94.35185185185182,0)" xlink:href="#bc"/><use transform="matrix(0.09259259259259256,0,0,0.09259259259259256,101.66666666666663,0)" xlink:href="#aN"/><use transform="matrix(0.09259259259259256,0,0,0.09259259259259256,120.18518518518515,0)" xlink:href="#aV"/><use transform="matrix(0.09259259259259256,0,0,0.09259259259259256,138.70370370370364,0)" xlink:href="#bh"/></g><path fill="#3a414a" d="M179-190L93 31C79 59 56 82 12 73V49c39 6 53-20 64-50L1-190h34L92-34l54-156h33" id="bl"/><g id="k"><use transform="matrix(0.09259259259259256,0,0,0.09259259259259256,0,0)" xlink:href="#bd"/><use transform="matrix(0.09259259259259256,0,0,0.09259259259259256,22.222222222222214,0)" xlink:href="#aV"/><use transform="matrix(0.09259259259259256,0,0,0.09259259259259256,40.740740740740726,0)" xlink:href="#aS"/><use transform="matrix(0.09259259259259256,0,0,0.09259259259259256,59.25925925925924,0)" xlink:href="#aZ"/><use transform="matrix(0.09259259259259256,0,0,0.09259259259259256,66.57407407407405,0)" xlink:href="#bl"/><use transform="matrix(0.09259259259259256,0,0,0.09259259259259256,83.2407407407407,0)" xlink:href="#aM"/><use transform="matrix(0.09259259259259256,0,0,0.09259259259259256,99.90740740740738,0)" xlink:href="#bc"/><use transform="matrix(0.09259259259259256,0,0,0.09259259259259256,107.22222222222216,0)" xlink:href="#aM"/></g><path fill="#3a414a" d="M206 0h-36l-40-164L89 0H53L-1-190h32L70-26l43-164h34l41 164 42-164h31" id="bm"/><g id="l"><use transform="matrix(0.09259259259259256,0,0,0.09259259259259256,0,0)" xlink:href="#bj"/><use transform="matrix(0.09259259259259256,0,0,0.09259259259259256,20.27777777777777,0)" xlink:href="#aZ"/><use transform="matrix(0.09259259259259256,0,0,0.09259259259259256,27.59259259259258,0)" xlink:href="#aQ"/><use transform="matrix(0.09259259259259256,0,0,0.09259259259259256,46.1111111111111,0)" xlink:href="#bm"/><use transform="matrix(0.09259259259259256,0,0,0.09259259259259256,70.09259259259258,0)" xlink:href="#ba"/><use transform="matrix(0.09259259259259256,0,0,0.09259259259259256,86.75925925925924,0)" xlink:href="#bb"/><use transform="matrix(0.09259259259259256,0,0,0.09259259259259256,105.27777777777774,0)" xlink:href="#aS"/><use transform="matrix(0.09259259259259256,0,0,0.09259259259259256,123.79629629629625,0)" xlink:href="#aO"/><use transform="matrix(0.09259259259259256,0,0,0.09259259259259256,134.81481481481475,0)" xlink:href="#bh"/></g><g id="m"><use transform="matrix(0.06172839506172839,0,0,0.06172839506172839,0,0)" xlink:href="#aL"/><use transform="matrix(0.06172839506172839,0,0,0.06172839506172839,15.987654320987653,0)" xlink:href="#aM"/><use transform="matrix(0.06172839506172839,0,0,0.06172839506172839,27.098765432098766,0)" xlink:href="#aN"/><use transform="matrix(0.06172839506172839,0,0,0.06172839506172839,39.44444444444444,0)" xlink:href="#aO"/></g><g id="n"><use transform="matrix(0.06172839506172839,0,0,0.06172839506172839,0,0)" xlink:href="#aM"/><use transform="matrix(0.06172839506172839,0,0,0.06172839506172839,11.11111111111111,0)" xlink:href="#bh"/><use transform="matrix(0.06172839506172839,0,0,0.06172839506172839,17.28395061728395,0)" xlink:href="#aS"/><use transform="matrix(0.06172839506172839,0,0,0.06172839506172839,29.629629629629626,0)" xlink:href="#aO"/><use transform="matrix(0.06172839506172839,0,0,0.06172839506172839,36.9753086419753,0)" xlink:href="#bh"/></g><g id="o"><use transform="matrix(0.06172839506172839,0,0,0.06172839506172839,0,0)" xlink:href="#bh"/><use transform="matrix(0.06172839506172839,0,0,0.06172839506172839,6.172839506172839,0)" xlink:href="#bb"/><use transform="matrix(0.06172839506172839,0,0,0.06172839506172839,18.51851851851852,0)" xlink:href="#aN"/></g><path fill="#3a414a" d="M115-194c55 1 70 41 70 98S169 2 115 4C84 4 66-9 55-30l1 105H24l-1-265h31l2 30c10-21 28-34 59-34zm-8 174c40 0 45-34 45-75s-6-73-45-74c-42 0-51 32-51 76 0 43 10 73 51 73" id="bn"/><g id="p"><use transform="matrix(0.06172839506172839,0,0,0.06172839506172839,0,0)" xlink:href="#bn"/><use transform="matrix(0.06172839506172839,0,0,0.06172839506172839,12.345679012345679,0)" xlink:href="#aO"/><use transform="matrix(0.06172839506172839,0,0,0.06172839506172839,19.691358024691358,0)" xlink:href="#aQ"/><use transform="matrix(0.06172839506172839,0,0,0.06172839506172839,32.03703703703704,0)" xlink:href="#aR"/><use transform="matrix(0.06172839506172839,0,0,0.06172839506172839,44.382716049382715,0)" xlink:href="#aO"/><use transform="matrix(0.06172839506172839,0,0,0.06172839506172839,51.72839506172839,0)" xlink:href="#aS"/><use transform="matrix(0.06172839506172839,0,0,0.06172839506172839,64.07407407407408,0)" xlink:href="#aT"/></g><g id="q"><use transform="matrix(0.06172839506172839,0,0,0.06172839506172839,0,0)" xlink:href="#aL"/><use transform="matrix(0.06172839506172839,0,0,0.06172839506172839,15.987654320987653,0)" xlink:href="#aM"/><use transform="matrix(0.06172839506172839,0,0,0.06172839506172839,27.098765432098766,0)" xlink:href="#aN"/><use transform="matrix(0.06172839506172839,0,0,0.06172839506172839,39.44444444444444,0)" xlink:href="#aO"/></g><g id="r"><use transform="matrix(0.06172839506172839,0,0,0.06172839506172839,0,0)" xlink:href="#aL"/><use transform="matrix(0.06172839506172839,0,0,0.06172839506172839,15.987654320987653,0)" xlink:href="#bn"/><use transform="matrix(0.06172839506172839,0,0,0.06172839506172839,28.333333333333332,0)" xlink:href="#aZ"/><use transform="matrix(0.06172839506172839,0,0,0.06172839506172839,33.20987654320987,0)" xlink:href="#aQ"/><use transform="matrix(0.06172839506172839,0,0,0.06172839506172839,45.55555555555555,0)" xlink:href="#aS"/><use transform="matrix(0.06172839506172839,0,0,0.06172839506172839,57.90123456790123,0)" xlink:href="#aY"/></g><path fill="#3a414a" d="M190 0L58-211 59 0H30v-248h39L202-35l-2-213h31V0h-41" id="bo"/><g id="s"><use transform="matrix(0.06172839506172839,0,0,0.06172839506172839,0,0)" xlink:href="#bo"/><use transform="matrix(0.06172839506172839,0,0,0.06172839506172839,15.987654320987653,0)" xlink:href="#aW"/><use transform="matrix(0.06172839506172839,0,0,0.06172839506172839,28.333333333333332,0)" xlink:href="#bh"/><use transform="matrix(0.06172839506172839,0,0,0.06172839506172839,34.50617283950617,0)" xlink:href="#aO"/><use transform="matrix(0.06172839506172839,0,0,0.06172839506172839,41.85185185185185,0)" xlink:href="#bc"/><use transform="matrix(0.06172839506172839,0,0,0.06172839506172839,46.72839506172839,0)" xlink:href="#bh"/><use transform="matrix(0.06172839506172839,0,0,0.06172839506172839,52.901234567901234,0)" xlink:href="#bc"/><use transform="matrix(0.06172839506172839,0,0,0.06172839506172839,57.77777777777778,0)" xlink:href="#aQ"/><use transform="matrix(0.06172839506172839,0,0,0.06172839506172839,70.12345679012346,0)" xlink:href="#aV"/></g><g id="t"><use transform="matrix(0.06172839506172839,0,0,0.06172839506172839,0,0)" xlink:href="#aU"/><use transform="matrix(0.06172839506172839,0,0,0.06172839506172839,12.345679012345679,0)" xlink:href="#aS"/><use transform="matrix(0.06172839506172839,0,0,0.06172839506172839,24.691358024691358,0)" xlink:href="#bi"/><use transform="matrix(0.06172839506172839,0,0,0.06172839506172839,37.03703703703704,0)" xlink:href="#aN"/><use transform="matrix(0.06172839506172839,0,0,0.06172839506172839,49.382716049382715,0)" xlink:href="#aZ"/></g><path fill="#3a414a" d="M212-179c-10-28-35-45-73-45-59 0-87 40-87 99 0 60 29 101 89 101 43 0 62-24 78-52l27 14C228-24 195 4 139 4 59 4 22-46 18-125c-6-104 99-153 187-111 19 9 31 26 39 46" id="bp"/><path fill="#3a414a" d="M143 0L79-87 56-68V0H24v-261h32v163l83-92h37l-77 82L181 0h-38" id="bq"/><g id="u"><use transform="matrix(0.06172839506172839,0,0,0.06172839506172839,0,0)" xlink:href="#bp"/><use transform="matrix(0.06172839506172839,0,0,0.06172839506172839,15.987654320987653,0)" xlink:href="#bb"/><use transform="matrix(0.06172839506172839,0,0,0.06172839506172839,28.333333333333332,0)" xlink:href="#aN"/><use transform="matrix(0.06172839506172839,0,0,0.06172839506172839,40.67901234567901,0)" xlink:href="#ba"/><use transform="matrix(0.06172839506172839,0,0,0.06172839506172839,51.79012345679013,0)" xlink:href="#bq"/></g><g id="v"><use transform="matrix(0.06172839506172839,0,0,0.06172839506172839,0,0)" xlink:href="#bc"/><use transform="matrix(0.06172839506172839,0,0,0.06172839506172839,4.876543209876543,0)" xlink:href="#aM"/></g><g id="w"><use transform="matrix(0.06172839506172839,0,0,0.06172839506172839,0,0)" xlink:href="#bk"/><use transform="matrix(0.06172839506172839,0,0,0.06172839506172839,6.172839506172839,0)" xlink:href="#aV"/><use transform="matrix(0.06172839506172839,0,0,0.06172839506172839,18.51851851851852,0)" xlink:href="#aR"/><use transform="matrix(0.06172839506172839,0,0,0.06172839506172839,30.864197530864196,0)" xlink:href="#aO"/><use transform="matrix(0.06172839506172839,0,0,0.06172839506172839,38.20987654320987,0)" xlink:href="#aN"/><use transform="matrix(0.06172839506172839,0,0,0.06172839506172839,50.55555555555555,0)" xlink:href="#aY"/><use transform="matrix(0.06172839506172839,0,0,0.06172839506172839,62.90123456790123,0)" xlink:href="#bc"/><use transform="matrix(0.06172839506172839,0,0,0.06172839506172839,67.77777777777777,0)" xlink:href="#aN"/><use transform="matrix(0.06172839506172839,0,0,0.06172839506172839,80.12345679012346,0)" xlink:href="#aV"/><use transform="matrix(0.06172839506172839,0,0,0.06172839506172839,92.46913580246914,0)" xlink:href="#bh"/></g><g id="x"><use transform="matrix(0.06172839506172839,0,0,0.06172839506172839,0,0)" xlink:href="#aZ"/><use transform="matrix(0.06172839506172839,0,0,0.06172839506172839,4.876543209876543,0)" xlink:href="#bc"/><use transform="matrix(0.06172839506172839,0,0,0.06172839506172839,9.753086419753085,0)" xlink:href="#aM"/><use transform="matrix(0.06172839506172839,0,0,0.06172839506172839,20.864197530864196,0)" xlink:href="#bh"/></g><g id="y"><use transform="matrix(0.06172839506172839,0,0,0.06172839506172839,0,0)" xlink:href="#aQ"/><use transform="matrix(0.06172839506172839,0,0,0.06172839506172839,12.345679012345679,0)" xlink:href="#aO"/></g><g id="z"><use transform="matrix(0.06172839506172839,0,0,0.06172839506172839,0,0)" xlink:href="#bo"/><use transform="matrix(0.06172839506172839,0,0,0.06172839506172839,15.987654320987653,0)" xlink:href="#aW"/><use transform="matrix(0.06172839506172839,0,0,0.06172839506172839,28.333333333333332,0)" xlink:href="#bh"/><use transform="matrix(0.06172839506172839,0,0,0.06172839506172839,34.50617283950617,0)" xlink:href="#aO"/><use transform="matrix(0.06172839506172839,0,0,0.06172839506172839,41.85185185185185,0)" xlink:href="#bc"/><use transform="matrix(0.06172839506172839,0,0,0.06172839506172839,46.72839506172839,0)" xlink:href="#bh"/><use transform="matrix(0.06172839506172839,0,0,0.06172839506172839,52.901234567901234,0)" xlink:href="#bc"/><use transform="matrix(0.06172839506172839,0,0,0.06172839506172839,57.77777777777778,0)" xlink:href="#aQ"/><use transform="matrix(0.06172839506172839,0,0,0.06172839506172839,70.12345679012346,0)" xlink:href="#aV"/></g><g id="A"><use transform="matrix(0.06172839506172839,0,0,0.06172839506172839,0,0)" xlink:href="#bh"/><use transform="matrix(0.06172839506172839,0,0,0.06172839506172839,6.172839506172839,0)" xlink:href="#aS"/><use transform="matrix(0.06172839506172839,0,0,0.06172839506172839,18.51851851851852,0)" xlink:href="#bi"/><use transform="matrix(0.06172839506172839,0,0,0.06172839506172839,30.864197530864196,0)" xlink:href="#aZ"/><use transform="matrix(0.06172839506172839,0,0,0.06172839506172839,35.74074074074074,0)" xlink:href="#aN"/></g><g id="B"><use transform="matrix(0.06172839506172839,0,0,0.06172839506172839,0,0)" xlink:href="#bd"/><use transform="matrix(0.06172839506172839,0,0,0.06172839506172839,14.814814814814813,0)" xlink:href="#aM"/><use transform="matrix(0.06172839506172839,0,0,0.06172839506172839,25.925925925925924,0)" xlink:href="#bq"/></g><path fill="#3a414a" d="M140-251c81 0 123 46 123 126C263-46 219 4 140 4 59 4 17-45 17-125s42-126 123-126zm0 227c63 0 89-41 89-101s-29-99-89-99c-61 0-89 39-89 99S79-25 140-24" id="br"/><g id="C"><use transform="matrix(0.06172839506172839,0,0,0.06172839506172839,0,0)" xlink:href="#br"/><use transform="matrix(0.06172839506172839,0,0,0.06172839506172839,17.28395061728395,0)" xlink:href="#bn"/><use transform="matrix(0.06172839506172839,0,0,0.06172839506172839,29.629629629629626,0)" xlink:href="#aN"/><use transform="matrix(0.06172839506172839,0,0,0.06172839506172839,41.9753086419753,0)" xlink:href="#aV"/></g><g id="D"><use transform="matrix(0.06172839506172839,0,0,0.06172839506172839,0,0)" xlink:href="#bd"/><use transform="matrix(0.06172839506172839,0,0,0.06172839506172839,14.814814814814813,0)" xlink:href="#bk"/></g><path fill="#3a414a" d="M101-234c-31-9-42 10-38 44h38v23H63V0H32v-167H5v-23h27c-7-52 17-82 69-68v24" id="bs"/><g id="E"><use transform="matrix(0.06172839506172839,0,0,0.06172839506172839,0,0)" xlink:href="#bs"/><use transform="matrix(0.06172839506172839,0,0,0.06172839506172839,6.172839506172839,0)" xlink:href="#aQ"/><use transform="matrix(0.06172839506172839,0,0,0.06172839506172839,18.51851851851852,0)" xlink:href="#aO"/></g><g id="F"><use transform="matrix(0.06172839506172839,0,0,0.06172839506172839,0,0)" xlink:href="#bc"/><use transform="matrix(0.06172839506172839,0,0,0.06172839506172839,4.876543209876543,0)" xlink:href="#aV"/><use transform="matrix(0.06172839506172839,0,0,0.06172839506172839,17.22222222222222,0)" xlink:href="#aR"/><use transform="matrix(0.06172839506172839,0,0,0.06172839506172839,29.5679012345679,0)" xlink:href="#aO"/><use transform="matrix(0.06172839506172839,0,0,0.06172839506172839,36.913580246913575,0)" xlink:href="#aN"/><use transform="matrix(0.06172839506172839,0,0,0.06172839506172839,49.25925925925925,0)" xlink:href="#aY"/><use transform="matrix(0.06172839506172839,0,0,0.06172839506172839,61.60493827160493,0)" xlink:href="#bc"/><use transform="matrix(0.06172839506172839,0,0,0.06172839506172839,66.48148148148147,0)" xlink:href="#aN"/><use transform="matrix(0.06172839506172839,0,0,0.06172839506172839,78.82716049382715,0)" xlink:href="#aV"/><use transform="matrix(0.06172839506172839,0,0,0.06172839506172839,91.17283950617283,0)" xlink:href="#bh"/></g><g id="G"><use transform="matrix(0.06172839506172839,0,0,0.06172839506172839,0,0)" xlink:href="#aO"/><use transform="matrix(0.06172839506172839,0,0,0.06172839506172839,7.345679012345679,0)" xlink:href="#aS"/><use transform="matrix(0.06172839506172839,0,0,0.06172839506172839,19.691358024691358,0)" xlink:href="#bh"/><use transform="matrix(0.06172839506172839,0,0,0.06172839506172839,25.864197530864196,0)" xlink:href="#bc"/><use transform="matrix(0.06172839506172839,0,0,0.06172839506172839,30.74074074074074,0)" xlink:href="#aV"/><use transform="matrix(0.06172839506172839,0,0,0.06172839506172839,43.08641975308642,0)" xlink:href="#aR"/></g><g id="H"><use transform="matrix(0.06172839506172839,0,0,0.06172839506172839,0,0)" xlink:href="#bp"/><use transform="matrix(0.06172839506172839,0,0,0.06172839506172839,15.987654320987653,0)" xlink:href="#aQ"/><use transform="matrix(0.06172839506172839,0,0,0.06172839506172839,28.333333333333332,0)" xlink:href="#aT"/><use transform="matrix(0.06172839506172839,0,0,0.06172839506172839,46.79012345679012,0)" xlink:href="#bi"/><use transform="matrix(0.06172839506172839,0,0,0.06172839506172839,59.1358024691358,0)" xlink:href="#bc"/><use transform="matrix(0.06172839506172839,0,0,0.06172839506172839,64.01234567901234,0)" xlink:href="#aV"/><use transform="matrix(0.06172839506172839,0,0,0.06172839506172839,76.35802469135803,0)" xlink:href="#aN"/></g><g id="I"><use transform="matrix(0.06172839506172839,0,0,0.06172839506172839,0,0)" xlink:href="#bi"/><use transform="matrix(0.06172839506172839,0,0,0.06172839506172839,12.345679012345679,0)" xlink:href="#aQ"/><use transform="matrix(0.06172839506172839,0,0,0.06172839506172839,24.691358024691358,0)" xlink:href="#bh"/><use transform="matrix(0.06172839506172839,0,0,0.06172839506172839,30.864197530864196,0)" xlink:href="#bb"/></g><g id="J"><use transform="matrix(0.06172839506172839,0,0,0.06172839506172839,0,0)" xlink:href="#bh"/><use transform="matrix(0.06172839506172839,0,0,0.06172839506172839,6.172839506172839,0)" xlink:href="#aQ"/></g><g id="K"><use transform="matrix(0.06172839506172839,0,0,0.06172839506172839,0,0)" xlink:href="#aY"/><use transform="matrix(0.06172839506172839,0,0,0.06172839506172839,12.345679012345679,0)" xlink:href="#aN"/><use transform="matrix(0.06172839506172839,0,0,0.06172839506172839,24.691358024691358,0)" xlink:href="#bh"/><use transform="matrix(0.06172839506172839,0,0,0.06172839506172839,30.864197530864196,0)" xlink:href="#aN"/><use transform="matrix(0.06172839506172839,0,0,0.06172839506172839,43.20987654320987,0)" xlink:href="#aO"/><use transform="matrix(0.06172839506172839,0,0,0.06172839506172839,50.55555555555555,0)" xlink:href="#aT"/><use transform="matrix(0.06172839506172839,0,0,0.06172839506172839,69.01234567901234,0)" xlink:href="#bc"/><use transform="matrix(0.06172839506172839,0,0,0.06172839506172839,73.88888888888889,0)" xlink:href="#aV"/><use transform="matrix(0.06172839506172839,0,0,0.06172839506172839,86.23456790123457,0)" xlink:href="#aN"/></g><g id="L"><use transform="matrix(0.06172839506172839,0,0,0.06172839506172839,0,0)" xlink:href="#bm"/><use transform="matrix(0.06172839506172839,0,0,0.06172839506172839,15.987654320987653,0)" xlink:href="#bb"/><use transform="matrix(0.06172839506172839,0,0,0.06172839506172839,28.333333333333332,0)" xlink:href="#aN"/><use transform="matrix(0.06172839506172839,0,0,0.06172839506172839,40.67901234567901,0)" xlink:href="#bh"/><use transform="matrix(0.06172839506172839,0,0,0.06172839506172839,46.851851851851855,0)" xlink:href="#bb"/><use transform="matrix(0.06172839506172839,0,0,0.06172839506172839,59.19753086419753,0)" xlink:href="#aN"/><use transform="matrix(0.06172839506172839,0,0,0.06172839506172839,71.54320987654322,0)" xlink:href="#aO"/></g><g id="M"><use transform="matrix(0.06172839506172839,0,0,0.06172839506172839,0,0)" xlink:href="#bh"/><use transform="matrix(0.06172839506172839,0,0,0.06172839506172839,6.172839506172839,0)" xlink:href="#bb"/><use transform="matrix(0.06172839506172839,0,0,0.06172839506172839,18.51851851851852,0)" xlink:href="#aN"/></g><g id="N"><use transform="matrix(0.06172839506172839,0,0,0.06172839506172839,0,0)" xlink:href="#bs"/><use transform="matrix(0.06172839506172839,0,0,0.06172839506172839,6.172839506172839,0)" xlink:href="#aQ"/><use transform="matrix(0.06172839506172839,0,0,0.06172839506172839,18.51851851851852,0)" xlink:href="#aQ"/><use transform="matrix(0.06172839506172839,0,0,0.06172839506172839,30.864197530864196,0)" xlink:href="#aY"/></g><g id="O"><use transform="matrix(0.06172839506172839,0,0,0.06172839506172839,0,0)" xlink:href="#aR"/><use transform="matrix(0.06172839506172839,0,0,0.06172839506172839,12.345679012345679,0)" xlink:href="#aQ"/><use transform="matrix(0.06172839506172839,0,0,0.06172839506172839,24.691358024691358,0)" xlink:href="#aQ"/><use transform="matrix(0.06172839506172839,0,0,0.06172839506172839,37.03703703703704,0)" xlink:href="#aY"/></g><path fill="#3a414a" d="M143 4C61 4 22-44 18-125c-5-107 100-154 193-111 17 8 29 25 37 43l-32 9c-13-25-37-40-76-40-61 0-88 39-88 99 0 61 29 100 91 101 35 0 62-11 79-27v-45h-74v-28h105v86C228-13 192 4 143 4" id="bt"/><g id="P"><use transform="matrix(0.06172839506172839,0,0,0.06172839506172839,0,0)" xlink:href="#bt"/><use transform="matrix(0.06172839506172839,0,0,0.06172839506172839,17.28395061728395,0)" xlink:href="#aN"/><use transform="matrix(0.06172839506172839,0,0,0.06172839506172839,29.629629629629626,0)" xlink:href="#aV"/><use transform="matrix(0.06172839506172839,0,0,0.06172839506172839,41.9753086419753,0)" xlink:href="#aN"/><use transform="matrix(0.06172839506172839,0,0,0.06172839506172839,54.32098765432098,0)" xlink:href="#aO"/><use transform="matrix(0.06172839506172839,0,0,0.06172839506172839,61.66666666666666,0)" xlink:href="#aS"/><use transform="matrix(0.06172839506172839,0,0,0.06172839506172839,74.01234567901234,0)" xlink:href="#bh"/><use transform="matrix(0.06172839506172839,0,0,0.06172839506172839,80.18518518518518,0)" xlink:href="#aN"/></g><path fill="#3a414a" d="M233-177c-1 41-23 64-60 70L243 0h-38l-65-103H63V0H30v-248c88 3 205-21 203 71zM63-129c60-2 137 13 137-47 0-61-80-42-137-45v92" id="bu"/><g id="Q"><use transform="matrix(0.06172839506172839,0,0,0.06172839506172839,0,0)" xlink:href="#bu"/><use transform="matrix(0.06172839506172839,0,0,0.06172839506172839,15.987654320987653,0)" xlink:href="#aN"/><use transform="matrix(0.06172839506172839,0,0,0.06172839506172839,28.333333333333332,0)" xlink:href="#aM"/><use transform="matrix(0.06172839506172839,0,0,0.06172839506172839,39.44444444444444,0)" xlink:href="#bn"/><use transform="matrix(0.06172839506172839,0,0,0.06172839506172839,51.79012345679012,0)" xlink:href="#aQ"/><use transform="matrix(0.06172839506172839,0,0,0.06172839506172839,64.1358024691358,0)" xlink:href="#aV"/><use transform="matrix(0.06172839506172839,0,0,0.06172839506172839,76.48148148148148,0)" xlink:href="#aM"/><use transform="matrix(0.06172839506172839,0,0,0.06172839506172839,87.5925925925926,0)" xlink:href="#aN"/></g><g id="R"><use transform="matrix(0.06172839506172839,0,0,0.06172839506172839,0,0)" xlink:href="#bh"/><use transform="matrix(0.06172839506172839,0,0,0.06172839506172839,6.172839506172839,0)" xlink:href="#aQ"/></g><g id="S"><use transform="matrix(0.06172839506172839,0,0,0.06172839506172839,0,0)" xlink:href="#aM"/><use transform="matrix(0.06172839506172839,0,0,0.06172839506172839,11.11111111111111,0)" xlink:href="#aW"/><use transform="matrix(0.06172839506172839,0,0,0.06172839506172839,23.45679012345679,0)" xlink:href="#aR"/><use transform="matrix(0.06172839506172839,0,0,0.06172839506172839,35.80246913580247,0)" xlink:href="#aR"/><use transform="matrix(0.06172839506172839,0,0,0.06172839506172839,48.148148148148145,0)" xlink:href="#aN"/><use transform="matrix(0.06172839506172839,0,0,0.06172839506172839,60.49382716049382,0)" xlink:href="#aM"/><use transform="matrix(0.06172839506172839,0,0,0.06172839506172839,71.60493827160494,0)" xlink:href="#bh"/></g><g id="T"><use transform="matrix(0.06172839506172839,0,0,0.06172839506172839,0,0)" xlink:href="#aW"/><use transform="matrix(0.06172839506172839,0,0,0.06172839506172839,12.345679012345679,0)" xlink:href="#aM"/><use transform="matrix(0.06172839506172839,0,0,0.06172839506172839,23.45679012345679,0)" xlink:href="#aN"/><use transform="matrix(0.06172839506172839,0,0,0.06172839506172839,35.80246913580247,0)" xlink:href="#aO"/></g><use transform="matrix(0.06172839506172839,0,0,0.06172839506172839,0,0)" xlink:href="#aS" id="U"/><g id="V"><use transform="matrix(0.06172839506172839,0,0,0.06172839506172839,0,0)" xlink:href="#bi"/><use transform="matrix(0.06172839506172839,0,0,0.06172839506172839,12.345679012345679,0)" xlink:href="#aN"/><use transform="matrix(0.06172839506172839,0,0,0.06172839506172839,24.691358024691358,0)" xlink:href="#bh"/><use transform="matrix(0.06172839506172839,0,0,0.06172839506172839,30.864197530864196,0)" xlink:href="#bh"/><use transform="matrix(0.06172839506172839,0,0,0.06172839506172839,37.03703703703704,0)" xlink:href="#aN"/><use transform="matrix(0.06172839506172839,0,0,0.06172839506172839,49.382716049382715,0)" xlink:href="#aO"/></g><path fill="#3a414a" d="M108 0H70L1-190h34L89-25l56-165h34" id="bv"/><g id="W"><use transform="matrix(0.06172839506172839,0,0,0.06172839506172839,0,0)" xlink:href="#aS"/><use transform="matrix(0.06172839506172839,0,0,0.06172839506172839,12.345679012345679,0)" xlink:href="#aZ"/><use transform="matrix(0.06172839506172839,0,0,0.06172839506172839,17.22222222222222,0)" xlink:href="#bh"/><use transform="matrix(0.06172839506172839,0,0,0.06172839506172839,23.39506172839506,0)" xlink:href="#aN"/><use transform="matrix(0.06172839506172839,0,0,0.06172839506172839,35.74074074074074,0)" xlink:href="#aO"/><use transform="matrix(0.06172839506172839,0,0,0.06172839506172839,43.08641975308642,0)" xlink:href="#aV"/><use transform="matrix(0.06172839506172839,0,0,0.06172839506172839,55.432098765432094,0)" xlink:href="#aS"/><use transform="matrix(0.06172839506172839,0,0,0.06172839506172839,67.77777777777777,0)" xlink:href="#bh"/><use transform="matrix(0.06172839506172839,0,0,0.06172839506172839,73.9506172839506,0)" xlink:href="#bc"/><use transform="matrix(0.06172839506172839,0,0,0.06172839506172839,78.82716049382715,0)" xlink:href="#bv"/><use transform="matrix(0.06172839506172839,0,0,0.06172839506172839,89.93827160493827,0)" xlink:href="#aN"/></g><g id="X"><use transform="matrix(0.06172839506172839,0,0,0.06172839506172839,0,0)" xlink:href="#bc"/><use transform="matrix(0.06172839506172839,0,0,0.06172839506172839,4.876543209876543,0)" xlink:href="#aV"/><use transform="matrix(0.06172839506172839,0,0,0.06172839506172839,17.22222222222222,0)" xlink:href="#bh"/><use transform="matrix(0.06172839506172839,0,0,0.06172839506172839,23.39506172839506,0)" xlink:href="#aS"/><use transform="matrix(0.06172839506172839,0,0,0.06172839506172839,35.74074074074074,0)" xlink:href="#bq"/><use transform="matrix(0.06172839506172839,0,0,0.06172839506172839,46.85185185185185,0)" xlink:href="#aN"/></g><g id="Y"><use transform="matrix(0.06172839506172839,0,0,0.06172839506172839,0,0)" xlink:href="#bh"/><use transform="matrix(0.06172839506172839,0,0,0.06172839506172839,6.172839506172839,0)" xlink:href="#bb"/><use transform="matrix(0.06172839506172839,0,0,0.06172839506172839,18.51851851851852,0)" xlink:href="#bc"/><use transform="matrix(0.06172839506172839,0,0,0.06172839506172839,23.395061728395063,0)" xlink:href="#aM"/></g><g id="Z"><use transform="matrix(0.06172839506172839,0,0,0.06172839506172839,0,0)" xlink:href="#bs"/><use transform="matrix(0.06172839506172839,0,0,0.06172839506172839,6.172839506172839,0)" xlink:href="#aQ"/><use transform="matrix(0.06172839506172839,0,0,0.06172839506172839,18.51851851851852,0)" xlink:href="#aQ"/><use transform="matrix(0.06172839506172839,0,0,0.06172839506172839,30.864197530864196,0)" xlink:href="#aY"/></g><g id="aa"><use transform="matrix(0.06172839506172839,0,0,0.06172839506172839,0,0)" xlink:href="#bf"/><use transform="matrix(0.06172839506172839,0,0,0.06172839506172839,14.814814814814813,0)" xlink:href="#bh"/><use transform="matrix(0.06172839506172839,0,0,0.06172839506172839,20.98765432098765,0)" xlink:href="#aQ"/><use transform="matrix(0.06172839506172839,0,0,0.06172839506172839,33.33333333333333,0)" xlink:href="#aO"/><use transform="matrix(0.06172839506172839,0,0,0.06172839506172839,40.679012345679006,0)" xlink:href="#aN"/></g><g id="ab"><use transform="matrix(0.06172839506172839,0,0,0.06172839506172839,0,0)" xlink:href="#bs"/><use transform="matrix(0.06172839506172839,0,0,0.06172839506172839,6.172839506172839,0)" xlink:href="#aQ"/><use transform="matrix(0.06172839506172839,0,0,0.06172839506172839,18.51851851851852,0)" xlink:href="#aQ"/><use transform="matrix(0.06172839506172839,0,0,0.06172839506172839,30.864197530864196,0)" xlink:href="#aY"/></g><g id="ac"><use transform="matrix(0.06172839506172839,0,0,0.06172839506172839,0,0)" xlink:href="#aY"/><use transform="matrix(0.06172839506172839,0,0,0.06172839506172839,12.345679012345679,0)" xlink:href="#aS"/><use transform="matrix(0.06172839506172839,0,0,0.06172839506172839,24.691358024691358,0)" xlink:href="#bh"/><use transform="matrix(0.06172839506172839,0,0,0.06172839506172839,30.864197530864196,0)" xlink:href="#aS"/></g><g id="ad"><use transform="matrix(0.06172839506172839,0,0,0.06172839506172839,0,0)" xlink:href="#bg"/><use transform="matrix(0.06172839506172839,0,0,0.06172839506172839,15.987654320987653,0)" xlink:href="#bc"/><use transform="matrix(0.06172839506172839,0,0,0.06172839506172839,20.864197530864196,0)" xlink:href="#aM"/><use transform="matrix(0.06172839506172839,0,0,0.06172839506172839,31.975308641975307,0)" xlink:href="#bn"/><use transform="matrix(0.06172839506172839,0,0,0.06172839506172839,44.32098765432099,0)" xlink:href="#aZ"/><use transform="matrix(0.06172839506172839,0,0,0.06172839506172839,49.19753086419753,0)" xlink:href="#aS"/><use transform="matrix(0.06172839506172839,0,0,0.06172839506172839,61.54320987654321,0)" xlink:href="#bl"/></g><g id="ae"><use transform="matrix(0.06172839506172839,0,0,0.06172839506172839,0,0)" xlink:href="#aO"/><use transform="matrix(0.06172839506172839,0,0,0.06172839506172839,7.345679012345679,0)" xlink:href="#aN"/><use transform="matrix(0.06172839506172839,0,0,0.06172839506172839,19.691358024691358,0)" xlink:href="#aM"/><use transform="matrix(0.06172839506172839,0,0,0.06172839506172839,30.80246913580247,0)" xlink:href="#aW"/><use transform="matrix(0.06172839506172839,0,0,0.06172839506172839,43.148148148148145,0)" xlink:href="#aZ"/><use transform="matrix(0.06172839506172839,0,0,0.06172839506172839,48.02469135802469,0)" xlink:href="#bh"/></g><path fill="#333" d="M24 0v-248h52V0H24" id="bw"/><path fill="#333" d="M135-194c87-1 58 113 63 194h-50c-7-57 23-157-34-157-59 0-34 97-39 157H25l-1-190h47c2 12-1 28 3 38 12-26 28-41 61-42" id="bx"/><path fill="#333" d="M195-6C206 82 75 100 31 46c-4-6-6-13-8-21l49-6c3 16 16 24 34 25 40 0 42-37 40-79-11 22-30 35-61 35-53 0-70-43-70-97 0-56 18-96 73-97 30 0 46 14 59 34l2-30h47zm-90-29c32 0 41-27 41-63 0-35-9-62-40-62-32 0-39 29-40 63 0 36 9 62 39 62" id="by"/><path fill="#333" d="M135-150c-39-12-60 13-60 57V0H25l-1-190h47c2 13-1 29 3 40 6-28 27-53 61-41v41" id="bz"/><path fill="#333" d="M185-48c-13 30-37 53-82 52C43 2 14-33 14-96s30-98 90-98c62 0 83 45 84 108H66c0 31 8 55 39 56 18 0 30-7 34-22zm-45-69c5-46-57-63-70-21-2 6-4 13-4 21h74" id="bA"/><path fill="#333" d="M88-194c31-1 46 15 58 34l-1-101h50l1 261h-48c-2-10 0-23-3-31C134-8 116 4 84 4 32 4 16-41 15-95c0-56 19-97 73-99zm17 164c33 0 40-30 41-66 1-37-9-64-41-64s-38 30-39 65c0 43 13 65 39 65" id="bB"/><path fill="#333" d="M25-224v-37h50v37H25zM25 0v-190h50V0H25" id="bC"/><path fill="#333" d="M115-3C79 11 28 4 28-45v-112H4v-33h27l15-45h31v45h36v33H77v99c-1 23 16 31 38 25v30" id="bD"/><g id="af"><use transform="matrix(0.04938271604938272,0,0,0.04938271604938272,0,0)" xlink:href="#bw"/><use transform="matrix(0.04938271604938272,0,0,0.04938271604938272,4.938271604938272,0)" xlink:href="#bx"/><use transform="matrix(0.04938271604938272,0,0,0.04938271604938272,15.753086419753087,0)" xlink:href="#by"/><use transform="matrix(0.04938271604938272,0,0,0.04938271604938272,26.567901234567902,0)" xlink:href="#bz"/><use transform="matrix(0.04938271604938272,0,0,0.04938271604938272,33.48148148148148,0)" xlink:href="#bA"/><use transform="matrix(0.04938271604938272,0,0,0.04938271604938272,43.358024691358025,0)" xlink:href="#bB"/><use transform="matrix(0.04938271604938272,0,0,0.04938271604938272,54.17283950617284,0)" xlink:href="#bC"/><use transform="matrix(0.04938271604938272,0,0,0.04938271604938272,59.111111111111114,0)" xlink:href="#bA"/><use transform="matrix(0.04938271604938272,0,0,0.04938271604938272,68.98765432098766,0)" xlink:href="#bx"/><use transform="matrix(0.04938271604938272,0,0,0.04938271604938272,79.80246913580247,0)" xlink:href="#bD"/></g><path fill="#333" d="M25 0v-261h50V0H25" id="bE"/><path fill="#333" d="M137-138c1-29-70-34-71-4 15 46 118 7 119 86 1 83-164 76-172 9l43-7c4 19 20 25 44 25 33 8 57-30 24-41C81-84 22-81 20-136c-2-80 154-74 161-7" id="bF"/><g id="ag"><use transform="matrix(0.04938271604938272,0,0,0.04938271604938272,0,0)" xlink:href="#bE"/><use transform="matrix(0.04938271604938272,0,0,0.04938271604938272,4.938271604938272,0)" xlink:href="#bC"/><use transform="matrix(0.04938271604938272,0,0,0.04938271604938272,9.876543209876544,0)" xlink:href="#bF"/><use transform="matrix(0.04938271604938272,0,0,0.04938271604938272,19.75308641975309,0)" xlink:href="#bD"/></g><path fill="#3a414a" d="M30 0v-248h187v28H63v79h144v27H63v87h162V0H30" id="bG"/><path fill="#3a414a" d="M141 0L90-78 38 0H4l68-98-65-92h35l48 74 47-74h35l-64 92 68 98h-35" id="bH"/><g id="ah"><use transform="matrix(0.06172839506172839,0,0,0.06172839506172839,0,0)" xlink:href="#bG"/><use transform="matrix(0.06172839506172839,0,0,0.06172839506172839,14.814814814814813,0)" xlink:href="#bH"/><use transform="matrix(0.06172839506172839,0,0,0.06172839506172839,25.925925925925924,0)" xlink:href="#bh"/><use transform="matrix(0.06172839506172839,0,0,0.06172839506172839,32.098765432098766,0)" xlink:href="#aO"/><use transform="matrix(0.06172839506172839,0,0,0.06172839506172839,39.44444444444444,0)" xlink:href="#aS"/><use transform="matrix(0.06172839506172839,0,0,0.06172839506172839,51.79012345679012,0)" xlink:href="#ba"/><use transform="matrix(0.06172839506172839,0,0,0.06172839506172839,62.90123456790123,0)" xlink:href="#bh"/></g><g id="ai"><use transform="matrix(0.06172839506172839,0,0,0.06172839506172839,0,0)" xlink:href="#bh"/><use transform="matrix(0.06172839506172839,0,0,0.06172839506172839,6.172839506172839,0)" xlink:href="#aN"/><use transform="matrix(0.06172839506172839,0,0,0.06172839506172839,18.51851851851852,0)" xlink:href="#bH"/><use transform="matrix(0.06172839506172839,0,0,0.06172839506172839,29.62962962962963,0)" xlink:href="#bh"/></g><g id="aj"><use transform="matrix(0.06172839506172839,0,0,0.06172839506172839,0,0)" xlink:href="#bs"/><use transform="matrix(0.06172839506172839,0,0,0.06172839506172839,6.172839506172839,0)" xlink:href="#aO"/><use transform="matrix(0.06172839506172839,0,0,0.06172839506172839,13.518518518518519,0)" xlink:href="#aQ"/><use transform="matrix(0.06172839506172839,0,0,0.06172839506172839,25.864197530864196,0)" xlink:href="#aT"/></g><g id="ak"><use transform="matrix(0.06172839506172839,0,0,0.06172839506172839,0,0)" xlink:href="#bk"/><use transform="matrix(0.06172839506172839,0,0,0.06172839506172839,6.172839506172839,0)" xlink:href="#aT"/><use transform="matrix(0.06172839506172839,0,0,0.06172839506172839,24.629629629629626,0)" xlink:href="#aS"/><use transform="matrix(0.06172839506172839,0,0,0.06172839506172839,36.9753086419753,0)" xlink:href="#aR"/><use transform="matrix(0.06172839506172839,0,0,0.06172839506172839,49.32098765432098,0)" xlink:href="#aN"/></g><path fill="#333" d="M146-102V0H94v-102L6-248h54l60 105 60-105h54" id="bI"/><g id="al"><use transform="matrix(0.04938271604938272,0,0,0.04938271604938272,0,0)" xlink:href="#bI"/><use transform="matrix(0.04938271604938272,0,0,0.04938271604938272,10.864197530864198,0)" xlink:href="#bA"/><use transform="matrix(0.04938271604938272,0,0,0.04938271604938272,20.74074074074074,0)" xlink:href="#bF"/></g><path fill="#333" d="M175 0L67-191c6 58 2 128 3 191H24v-248h59L193-55c-6-58-2-129-3-193h46V0h-61" id="bJ"/><path fill="#333" d="M110-194c64 0 96 36 96 99 0 64-35 99-97 99-61 0-95-36-95-99 0-62 34-99 96-99zm-1 164c35 0 45-28 45-65 0-40-10-65-43-65-34 0-45 26-45 65 0 36 10 65 43 65" id="bK"/><g id="am"><use transform="matrix(0.04938271604938272,0,0,0.04938271604938272,0,0)" xlink:href="#bJ"/><use transform="matrix(0.04938271604938272,0,0,0.04938271604938272,12.790123456790125,0)" xlink:href="#bK"/></g><path fill="#333" d="M85 4C-2 5 27-109 22-190h50c7 57-23 150 33 157 60-5 35-97 40-157h50l1 190h-47c-2-12 1-28-3-38-12 25-28 42-61 42" id="bL"/><g id="an"><use transform="matrix(0.04938271604938272,0,0,0.04938271604938272,0,0)" xlink:href="#bJ"/><use transform="matrix(0.04938271604938272,0,0,0.04938271604938272,12.790123456790125,0)" xlink:href="#bL"/><use transform="matrix(0.04938271604938272,0,0,0.04938271604938272,23.60493827160494,0)" xlink:href="#bD"/><use transform="matrix(0.04938271604938272,0,0,0.04938271604938272,29.481481481481485,0)" xlink:href="#bz"/><use transform="matrix(0.04938271604938272,0,0,0.04938271604938272,36.39506172839506,0)" xlink:href="#bC"/><use transform="matrix(0.04938271604938272,0,0,0.04938271604938272,41.333333333333336,0)" xlink:href="#bD"/><use transform="matrix(0.04938271604938272,0,0,0.04938271604938272,47.20987654320988,0)" xlink:href="#bC"/><use transform="matrix(0.04938271604938272,0,0,0.04938271604938272,52.14814814814815,0)" xlink:href="#bK"/><use transform="matrix(0.04938271604938272,0,0,0.04938271604938272,62.96296296296297,0)" xlink:href="#bx"/></g><path fill="#333" d="M136-208V0H84v-208H4v-40h212v40h-80" id="bM"/><path fill="#333" d="M133-34C117-15 103 5 69 4 32 3 11-16 11-54c-1-60 55-63 116-61 1-26-3-47-28-47-18 1-26 9-28 27l-52-2c7-38 36-58 82-57s74 22 75 68l1 82c-1 14 12 18 25 15v27c-30 8-71 5-69-32zm-48 3c29 0 43-24 42-57-32 0-66-3-65 30 0 17 8 27 23 27" id="bN"/><path fill="#333" d="M135-194c52 0 70 43 70 98 0 56-19 99-73 100-30 1-46-15-58-35L72 0H24l1-261h50v104c11-23 29-37 60-37zM114-30c31 0 40-27 40-66 0-37-7-63-39-63s-41 28-41 65c0 36 8 64 40 64" id="bO"/><g id="ao"><use transform="matrix(0.04938271604938272,0,0,0.04938271604938272,0,0)" xlink:href="#bM"/><use transform="matrix(0.04938271604938272,0,0,0.04938271604938272,9.481481481481481,0)" xlink:href="#bN"/><use transform="matrix(0.04938271604938272,0,0,0.04938271604938272,19.358024691358025,0)" xlink:href="#bO"/><use transform="matrix(0.04938271604938272,0,0,0.04938271604938272,30.172839506172842,0)" xlink:href="#bE"/><use transform="matrix(0.04938271604938272,0,0,0.04938271604938272,35.111111111111114,0)" xlink:href="#bA"/></g><g id="ap"><use transform="matrix(0.06172839506172839,0,0,0.06172839506172839,0,0)" xlink:href="#aL"/><use transform="matrix(0.06172839506172839,0,0,0.06172839506172839,15.987654320987653,0)" xlink:href="#aM"/><use transform="matrix(0.06172839506172839,0,0,0.06172839506172839,27.098765432098766,0)" xlink:href="#aN"/></g><g id="aq"><use transform="matrix(0.06172839506172839,0,0,0.06172839506172839,0,0)" xlink:href="#aX"/><use transform="matrix(0.06172839506172839,0,0,0.06172839506172839,18.456790123456788,0)" xlink:href="#aS"/><use transform="matrix(0.06172839506172839,0,0,0.06172839506172839,30.80246913580247,0)" xlink:href="#ba"/><use transform="matrix(0.06172839506172839,0,0,0.06172839506172839,41.91358024691358,0)" xlink:href="#bb"/><use transform="matrix(0.06172839506172839,0,0,0.06172839506172839,54.25925925925926,0)" xlink:href="#bc"/><use transform="matrix(0.06172839506172839,0,0,0.06172839506172839,59.135802469135804,0)" xlink:href="#aV"/><use transform="matrix(0.06172839506172839,0,0,0.06172839506172839,71.48148148148148,0)" xlink:href="#aN"/></g><g id="ar"><use transform="matrix(0.06172839506172839,0,0,0.06172839506172839,0,0)" xlink:href="#aU"/><use transform="matrix(0.06172839506172839,0,0,0.06172839506172839,12.345679012345679,0)" xlink:href="#aN"/><use transform="matrix(0.06172839506172839,0,0,0.06172839506172839,24.691358024691358,0)" xlink:href="#aS"/><use transform="matrix(0.06172839506172839,0,0,0.06172839506172839,37.03703703703704,0)" xlink:href="#aO"/><use transform="matrix(0.06172839506172839,0,0,0.06172839506172839,44.382716049382715,0)" xlink:href="#aV"/><use transform="matrix(0.06172839506172839,0,0,0.06172839506172839,56.72839506172839,0)" xlink:href="#bc"/><use transform="matrix(0.06172839506172839,0,0,0.06172839506172839,61.60493827160494,0)" xlink:href="#aV"/><use transform="matrix(0.06172839506172839,0,0,0.06172839506172839,73.95061728395062,0)" xlink:href="#aR"/></g><g id="as"><use transform="matrix(0.06172839506172839,0,0,0.06172839506172839,0,0)" xlink:href="#aX"/><use transform="matrix(0.06172839506172839,0,0,0.06172839506172839,18.456790123456788,0)" xlink:href="#aQ"/><use transform="matrix(0.06172839506172839,0,0,0.06172839506172839,30.80246913580247,0)" xlink:href="#aY"/><use transform="matrix(0.06172839506172839,0,0,0.06172839506172839,43.148148148148145,0)" xlink:href="#aN"/><use transform="matrix(0.06172839506172839,0,0,0.06172839506172839,55.49382716049382,0)" xlink:href="#aZ"/><use transform="matrix(0.06172839506172839,0,0,0.06172839506172839,60.37037037037037,0)" xlink:href="#aM"/></g><g id="at"><use transform="matrix(0.06172839506172839,0,0,0.06172839506172839,0,0)" xlink:href="#bn"/><use transform="matrix(0.06172839506172839,0,0,0.06172839506172839,12.345679012345679,0)" xlink:href="#aO"/><use transform="matrix(0.06172839506172839,0,0,0.06172839506172839,19.691358024691358,0)" xlink:href="#aN"/><use transform="matrix(0.06172839506172839,0,0,0.06172839506172839,32.03703703703704,0)" xlink:href="#aY"/><use transform="matrix(0.06172839506172839,0,0,0.06172839506172839,44.382716049382715,0)" xlink:href="#bc"/><use transform="matrix(0.06172839506172839,0,0,0.06172839506172839,49.25925925925926,0)" xlink:href="#ba"/><use transform="matrix(0.06172839506172839,0,0,0.06172839506172839,60.37037037037037,0)" xlink:href="#bh"/></g><g id="au"><use transform="matrix(0.06172839506172839,0,0,0.06172839506172839,0,0)" xlink:href="#aV"/><use transform="matrix(0.06172839506172839,0,0,0.06172839506172839,12.345679012345679,0)" xlink:href="#aW"/><use transform="matrix(0.06172839506172839,0,0,0.06172839506172839,24.691358024691358,0)" xlink:href="#bh"/><use transform="matrix(0.06172839506172839,0,0,0.06172839506172839,30.864197530864196,0)" xlink:href="#aO"/><use transform="matrix(0.06172839506172839,0,0,0.06172839506172839,38.20987654320987,0)" xlink:href="#bc"/><use transform="matrix(0.06172839506172839,0,0,0.06172839506172839,43.08641975308642,0)" xlink:href="#bh"/><use transform="matrix(0.06172839506172839,0,0,0.06172839506172839,49.25925925925926,0)" xlink:href="#bc"/><use transform="matrix(0.06172839506172839,0,0,0.06172839506172839,54.135802469135804,0)" xlink:href="#aQ"/><use transform="matrix(0.06172839506172839,0,0,0.06172839506172839,66.48148148148148,0)" xlink:href="#aV"/></g><g id="av"><use transform="matrix(0.06172839506172839,0,0,0.06172839506172839,0,0)" xlink:href="#be"/><use transform="matrix(0.06172839506172839,0,0,0.06172839506172839,20.493827160493826,0)" xlink:href="#aN"/></g><g id="aw"><use transform="matrix(0.06172839506172839,0,0,0.06172839506172839,0,0)" xlink:href="#ba"/><use transform="matrix(0.06172839506172839,0,0,0.06172839506172839,11.11111111111111,0)" xlink:href="#aQ"/><use transform="matrix(0.06172839506172839,0,0,0.06172839506172839,23.45679012345679,0)" xlink:href="#aZ"/><use transform="matrix(0.06172839506172839,0,0,0.06172839506172839,28.333333333333336,0)" xlink:href="#aZ"/><use transform="matrix(0.06172839506172839,0,0,0.06172839506172839,33.20987654320988,0)" xlink:href="#aN"/><use transform="matrix(0.06172839506172839,0,0,0.06172839506172839,45.55555555555556,0)" xlink:href="#ba"/><use transform="matrix(0.06172839506172839,0,0,0.06172839506172839,56.66666666666667,0)" xlink:href="#bh"/></g><g id="ax"><use transform="matrix(0.06172839506172839,0,0,0.06172839506172839,0,0)" xlink:href="#aY"/><use transform="matrix(0.06172839506172839,0,0,0.06172839506172839,12.345679012345679,0)" xlink:href="#aS"/><use transform="matrix(0.06172839506172839,0,0,0.06172839506172839,24.691358024691358,0)" xlink:href="#bh"/><use transform="matrix(0.06172839506172839,0,0,0.06172839506172839,30.864197530864196,0)" xlink:href="#aS"/></g><g id="ay"><use transform="matrix(0.06172839506172839,0,0,0.06172839506172839,0,0)" xlink:href="#aS"/><use transform="matrix(0.06172839506172839,0,0,0.06172839506172839,12.345679012345679,0)" xlink:href="#aV"/><use transform="matrix(0.06172839506172839,0,0,0.06172839506172839,24.691358024691358,0)" xlink:href="#aY"/></g><g id="az"><use transform="matrix(0.06172839506172839,0,0,0.06172839506172839,0,0)" xlink:href="#aM"/><use transform="matrix(0.06172839506172839,0,0,0.06172839506172839,11.11111111111111,0)" xlink:href="#bh"/><use transform="matrix(0.06172839506172839,0,0,0.06172839506172839,17.28395061728395,0)" xlink:href="#aQ"/><use transform="matrix(0.06172839506172839,0,0,0.06172839506172839,29.629629629629626,0)" xlink:href="#aO"/><use transform="matrix(0.06172839506172839,0,0,0.06172839506172839,36.9753086419753,0)" xlink:href="#aN"/></g><g id="aA"><use transform="matrix(0.06172839506172839,0,0,0.06172839506172839,0,0)" xlink:href="#bc"/><use transform="matrix(0.06172839506172839,0,0,0.06172839506172839,4.876543209876543,0)" xlink:href="#aV"/></g><g id="aB"><use transform="matrix(0.06172839506172839,0,0,0.06172839506172839,0,0)" xlink:href="#aY"/><use transform="matrix(0.06172839506172839,0,0,0.06172839506172839,12.345679012345679,0)" xlink:href="#aS"/><use transform="matrix(0.06172839506172839,0,0,0.06172839506172839,24.691358024691358,0)" xlink:href="#bh"/><use transform="matrix(0.06172839506172839,0,0,0.06172839506172839,30.864197530864196,0)" xlink:href="#aS"/><use transform="matrix(0.06172839506172839,0,0,0.06172839506172839,43.20987654320987,0)" xlink:href="#bi"/><use transform="matrix(0.06172839506172839,0,0,0.06172839506172839,55.55555555555555,0)" xlink:href="#aS"/><use transform="matrix(0.06172839506172839,0,0,0.06172839506172839,67.90123456790123,0)" xlink:href="#aM"/><use transform="matrix(0.06172839506172839,0,0,0.06172839506172839,79.01234567901234,0)" xlink:href="#aN"/></g><path fill="#3a414a" d="M127-220V0H93v-220H8v-28h204v28h-85" id="bP"/><g id="aC"><use transform="matrix(0.06172839506172839,0,0,0.06172839506172839,0,0)" xlink:href="#bP"/><use transform="matrix(0.06172839506172839,0,0,0.06172839506172839,12.716049382716047,0)" xlink:href="#aO"/><use transform="matrix(0.06172839506172839,0,0,0.06172839506172839,20.061728395061728,0)" xlink:href="#aS"/><use transform="matrix(0.06172839506172839,0,0,0.06172839506172839,32.407407407407405,0)" xlink:href="#bc"/><use transform="matrix(0.06172839506172839,0,0,0.06172839506172839,37.28395061728395,0)" xlink:href="#aV"/></g><g id="aD"><use transform="matrix(0.06172839506172839,0,0,0.06172839506172839,0,0)" xlink:href="#aX"/><use transform="matrix(0.06172839506172839,0,0,0.06172839506172839,18.456790123456788,0)" xlink:href="#aU"/></g><g id="aE"><use transform="matrix(0.06172839506172839,0,0,0.06172839506172839,0,0)" xlink:href="#aT"/><use transform="matrix(0.06172839506172839,0,0,0.06172839506172839,18.456790123456788,0)" xlink:href="#aQ"/><use transform="matrix(0.06172839506172839,0,0,0.06172839506172839,30.80246913580247,0)" xlink:href="#aY"/><use transform="matrix(0.06172839506172839,0,0,0.06172839506172839,43.148148148148145,0)" xlink:href="#aN"/><use transform="matrix(0.06172839506172839,0,0,0.06172839506172839,55.49382716049382,0)" xlink:href="#aZ"/><use transform="matrix(0.06172839506172839,0,0,0.06172839506172839,60.37037037037037,0)" xlink:href="#aM"/></g><g id="aF"><use transform="matrix(0.06172839506172839,0,0,0.06172839506172839,0,0)" xlink:href="#bP"/><use transform="matrix(0.06172839506172839,0,0,0.06172839506172839,11.049382716049381,0)" xlink:href="#aN"/><use transform="matrix(0.06172839506172839,0,0,0.06172839506172839,23.39506172839506,0)" xlink:href="#aM"/><use transform="matrix(0.06172839506172839,0,0,0.06172839506172839,34.50617283950617,0)" xlink:href="#bh"/></g><g id="aG"><use transform="matrix(0.06172839506172839,0,0,0.06172839506172839,0,0)" xlink:href="#aS"/><use transform="matrix(0.06172839506172839,0,0,0.06172839506172839,12.345679012345679,0)" xlink:href="#aV"/><use transform="matrix(0.06172839506172839,0,0,0.06172839506172839,24.691358024691358,0)" xlink:href="#aY"/></g><g id="aH"><use transform="matrix(0.06172839506172839,0,0,0.06172839506172839,0,0)" xlink:href="#bn"/><use transform="matrix(0.06172839506172839,0,0,0.06172839506172839,12.345679012345679,0)" xlink:href="#aN"/><use transform="matrix(0.06172839506172839,0,0,0.06172839506172839,24.691358024691358,0)" xlink:href="#aO"/><use transform="matrix(0.06172839506172839,0,0,0.06172839506172839,32.03703703703704,0)" xlink:href="#bs"/><use transform="matrix(0.06172839506172839,0,0,0.06172839506172839,38.20987654320988,0)" xlink:href="#aN"/><use transform="matrix(0.06172839506172839,0,0,0.06172839506172839,50.55555555555556,0)" xlink:href="#ba"/><use transform="matrix(0.06172839506172839,0,0,0.06172839506172839,61.66666666666667,0)" xlink:href="#bh"/></g><g id="aI"><use transform="matrix(0.06172839506172839,0,0,0.06172839506172839,0,0)" xlink:href="#bp"/><use transform="matrix(0.06172839506172839,0,0,0.06172839506172839,15.987654320987653,0)" xlink:href="#aQ"/><use transform="matrix(0.06172839506172839,0,0,0.06172839506172839,28.333333333333332,0)" xlink:href="#aV"/><use transform="matrix(0.06172839506172839,0,0,0.06172839506172839,40.67901234567901,0)" xlink:href="#aY"/><use transform="matrix(0.06172839506172839,0,0,0.06172839506172839,53.02469135802469,0)" xlink:href="#aW"/><use transform="matrix(0.06172839506172839,0,0,0.06172839506172839,65.37037037037037,0)" xlink:href="#ba"/><use transform="matrix(0.06172839506172839,0,0,0.06172839506172839,76.48148148148148,0)" xlink:href="#bh"/></g><path fill="#3a414a" d="M16-82v-28h88v28H16" id="bQ"/><g id="aJ"><use transform="matrix(0.06172839506172839,0,0,0.06172839506172839,0,0)" xlink:href="#aW"/><use transform="matrix(0.06172839506172839,0,0,0.06172839506172839,12.345679012345679,0)" xlink:href="#aM"/><use transform="matrix(0.06172839506172839,0,0,0.06172839506172839,23.45679012345679,0)" xlink:href="#aN"/><use transform="matrix(0.06172839506172839,0,0,0.06172839506172839,35.80246913580247,0)" xlink:href="#aO"/><use transform="matrix(0.06172839506172839,0,0,0.06172839506172839,43.148148148148145,0)" xlink:href="#bQ"/><use transform="matrix(0.06172839506172839,0,0,0.06172839506172839,50.49382716049382,0)" xlink:href="#ba"/><use transform="matrix(0.06172839506172839,0,0,0.06172839506172839,61.60493827160494,0)" xlink:href="#aN"/><use transform="matrix(0.06172839506172839,0,0,0.06172839506172839,73.95061728395062,0)" xlink:href="#aV"/><use transform="matrix(0.06172839506172839,0,0,0.06172839506172839,86.2962962962963,0)" xlink:href="#bh"/><use transform="matrix(0.06172839506172839,0,0,0.06172839506172839,92.46913580246914,0)" xlink:href="#aN"/><use transform="matrix(0.06172839506172839,0,0,0.06172839506172839,104.81481481481482,0)" xlink:href="#aO"/><use transform="matrix(0.06172839506172839,0,0,0.06172839506172839,112.16049382716051,0)" xlink:href="#aN"/><use transform="matrix(0.06172839506172839,0,0,0.06172839506172839,124.50617283950619,0)" xlink:href="#aY"/></g><g id="aK"><use transform="matrix(0.06172839506172839,0,0,0.06172839506172839,0,0)" xlink:href="#aO"/><use transform="matrix(0.06172839506172839,0,0,0.06172839506172839,7.345679012345679,0)" xlink:href="#aN"/><use transform="matrix(0.06172839506172839,0,0,0.06172839506172839,19.691358024691358,0)" xlink:href="#aM"/><use transform="matrix(0.06172839506172839,0,0,0.06172839506172839,30.80246913580247,0)" xlink:href="#aS"/><use transform="matrix(0.06172839506172839,0,0,0.06172839506172839,43.148148148148145,0)" xlink:href="#aO"/><use transform="matrix(0.06172839506172839,0,0,0.06172839506172839,50.49382716049382,0)" xlink:href="#ba"/><use transform="matrix(0.06172839506172839,0,0,0.06172839506172839,61.60493827160494,0)" xlink:href="#bb"/></g></defs></g></svg>